<svg width="218" height="90" viewBox="0 0 218 90" fill="none" xmlns="http://www.w3.org/2000/svg">
<g clip-path="url(#clip0_15_696)">
<g filter="url(#filter0_d_15_696)">
<path d="M37.145 29.0504H48.7408V32.9051H41.3968V40.0364H47.2333V43.8911H41.3968V52.1788H48.7408V56.0335H37.145V29.0504ZM57.1779 56.419C55.1422 56.419 53.5832 55.8408 52.501 54.6844C51.4444 53.5279 50.9162 51.8958 50.9162 49.7888V35.2951C50.9162 33.1877 51.4444 31.5559 52.501 30.3995C53.5832 29.2431 55.1422 28.6649 57.1779 28.6649C59.2136 28.6649 60.7597 29.2431 61.8162 30.3995C62.8985 31.5559 63.4396 33.1877 63.4396 35.2951V38.1476H59.4197V35.0252C59.4197 33.3548 58.7111 32.5196 57.2939 32.5196C55.8766 32.5196 55.168 33.3548 55.168 35.0252V50.0972C55.168 51.7416 55.8766 52.5643 57.2939 52.5643C58.7111 52.5643 59.4197 51.7416 59.4197 50.0972V45.9727H63.4396V49.7888C63.4396 51.8958 62.8985 53.5279 61.8162 54.6844C60.7597 55.8408 59.2136 56.419 57.1779 56.419ZM72.2046 56.419C70.1174 56.419 68.5198 55.8277 67.4117 54.6458C66.3037 53.4639 65.7496 51.7933 65.7496 49.6346V35.4492C65.7496 33.2906 66.3037 31.6202 67.4117 30.4381C68.5198 29.2559 70.1174 28.6649 72.2046 28.6649C74.2918 28.6649 75.8895 29.2559 76.9975 30.4381C78.1058 31.6202 78.6593 33.2906 78.6593 35.4492V49.6346C78.6593 51.7933 78.1058 53.4639 76.9975 54.6458C75.8895 55.8277 74.2918 56.419 72.2046 56.419ZM72.2046 52.5643C73.6734 52.5643 74.4078 51.6777 74.4078 49.9045V35.1794C74.4078 33.4062 73.6734 32.5196 72.2046 32.5196C70.7358 32.5196 70.0014 33.4062 70.0014 35.1794V49.9045C70.0014 51.6777 70.7358 52.5643 72.2046 52.5643ZM84.7084 32.9051H80.2634V29.0504H93.4053V32.9051H88.9602V56.0335H84.7084V32.9051ZM95.4631 29.0504H101.763C103.954 29.0504 105.551 29.5643 106.556 30.5923C107.561 31.5945 108.064 33.1492 108.064 35.2565V36.9141C108.064 39.7151 107.136 41.4883 105.281 42.2336V42.3107C106.312 42.6191 107.033 43.2486 107.445 44.1995C107.884 45.1503 108.102 46.4224 108.102 48.0157V52.757C108.102 53.5279 108.129 54.1578 108.18 54.6458C108.232 55.1084 108.361 55.571 108.566 56.0335H104.237C104.083 55.5964 103.98 55.1855 103.928 54.8C103.877 54.4145 103.851 53.7207 103.851 52.7184V47.7844C103.851 46.5509 103.645 45.69 103.232 45.2018C102.846 44.7134 102.163 44.4694 101.184 44.4694H99.7149V56.0335H95.4631V29.0504ZM101.261 40.6146C102.111 40.6146 102.743 40.3961 103.155 39.9593C103.593 39.5224 103.812 38.79 103.812 37.7621V35.6805C103.812 34.704 103.632 33.9972 103.271 33.5604C102.936 33.1235 102.395 32.9051 101.647 32.9051H99.7149V40.6146H101.261ZM111.052 29.0504H115.304V56.0335H111.052V29.0504ZM118.489 29.0504H122.741V52.1788H129.737V56.0335H118.489V29.0504ZM131.776 29.0504H136.027V40.0364H140.588V29.0504H144.84V56.0335H140.588V43.8911H136.027V56.0335H131.776V29.0504ZM151.292 29.0504H157.051L161.458 56.0335H157.206L156.433 50.6754V50.7525H151.601L150.828 56.0335H146.886L151.292 29.0504ZM155.93 47.0906L154.036 33.7532H153.959L152.104 47.0906H155.93ZM168.935 56.419C166.873 56.419 165.314 55.8408 164.258 54.6844C163.201 53.5025 162.673 51.8187 162.673 49.6346V48.0928H166.693V49.943C166.693 51.6908 167.427 52.5643 168.896 52.5643C169.617 52.5643 170.158 52.3584 170.519 51.9475C170.906 51.5104 171.099 50.8165 171.099 49.8659C171.099 48.7353 170.842 47.7459 170.326 46.8978C169.81 46.0241 168.857 44.9833 167.466 43.7755C165.713 42.2336 164.489 40.8459 163.794 39.6124C163.098 38.3531 162.75 36.9397 162.75 35.3722C162.75 33.2392 163.291 31.5945 164.374 30.4381C165.456 29.2559 167.027 28.6649 169.089 28.6649C171.125 28.6649 172.658 29.2559 173.689 30.4381C174.746 31.5945 175.274 33.2648 175.274 35.4492V36.5671H171.254V35.1794C171.254 34.2543 171.074 33.5861 170.713 33.1749C170.352 32.738 169.824 32.5196 169.128 32.5196C167.711 32.5196 167.002 33.3805 167.002 35.1023C167.002 36.0788 167.259 36.9911 167.775 37.8392C168.316 38.6872 169.282 39.7151 170.674 40.923C172.452 42.4649 173.676 43.8654 174.346 45.1247C175.016 46.3839 175.351 47.8615 175.351 49.5575C175.351 51.7679 174.797 53.4639 173.689 54.6458C172.606 55.8277 171.022 56.419 168.935 56.419Z" fill="#E9F9E9"/>
</g>
<mask id="mask0_15_696" style="mask-type:luminance" maskUnits="userSpaceOnUse" x="79" y="-28" width="139" height="138">
<path d="M150.29 -27.9998L79.624 38.9039L146.71 109.378L217.376 42.4742L150.29 -27.9998Z" fill="white"/>
</mask>
<g mask="url(#mask0_15_696)">
<path d="M151.13 58.6124C150.361 60.1535 150.789 62.5434 150.927 63.8417C151.067 65.1377 151.726 66.3712 152.165 67.4983C152.604 68.6239 153.275 70.9113 154.989 70.6608C155.484 68.6316 153.571 66.7813 152.741 64.8763C151.913 62.9705 152.037 60.9298 151.13 58.6124Z" stroke="white" stroke-width="0.3"/>
<path d="M206.108 30.6368L205.846 30.3615C200.89 28.7442 197.206 26.7316 191.981 25.1692C189.289 28.0716 193.616 29.0497 195.579 29.9356C197.544 30.8202 200.135 31.5077 202.292 32.4174C200.517 34.2911 198.67 35.8864 197.965 38.3464C198.46 38.6385 198.598 38.9508 199.158 39.0486C201.77 36.822 203.684 34.1302 206.48 31.8547C206.321 31.4398 206.266 31.0477 206.108 30.6368Z" stroke="white" stroke-width="0.3"/>
<path d="M194.469 33.0201C193.572 31.4744 191.425 32.0551 190.312 32.4894C189.2 32.9238 186.295 34.481 187.397 35.7903C188.604 34.8308 189.697 34.353 190.789 34.047C191.879 33.7423 193.745 34.0458 194.469 33.0201Z" stroke="white" stroke-width="0.3"/>
<path d="M185.816 39.6425C185.317 39.7746 185.131 39.8745 184.726 40.1512C184.979 43.996 184.538 47.1407 185.543 50.1072C186.071 50.256 186.368 49.9391 186.764 49.7356C186.156 46.341 187.899 41.7478 185.816 39.6425Z" stroke="white" stroke-width="0.3"/>
<path d="M159.719 75.079C159.182 76.19 161.058 77.5353 162.056 78.3417C163.053 79.1458 164.031 79.7325 165.245 79.9746C166.46 80.2143 168.508 79.4542 168.797 77.9994C167.541 76.843 165.741 78.3093 163.961 77.846C162.182 77.3819 161.396 76.2447 159.719 75.079Z" stroke="white" stroke-width="0.3"/>
<path d="M187.122 51.4903C185.891 54.6157 186.181 57.7342 183.67 59.9931C183.755 60.4726 184.246 60.4819 184.318 60.9491C187.625 58.5352 188.971 55.3928 188.461 51.7933C187.912 51.397 187.574 51.636 187.122 51.4903Z" stroke="white" stroke-width="0.3"/>
<path d="M184.501 69.4118C182.788 71.1518 181.166 72.9836 179.412 74.3328C177.658 75.6835 176.035 75.7259 174.22 76.5292C176.66 77.0527 178.508 76.0967 180.668 75.2448C182.829 74.3945 185.153 72.4455 185.964 70.1211C185.383 69.684 185.158 69.603 184.501 69.4118Z" stroke="white" stroke-width="0.3"/>
<path d="M118.409 14.4732C116.57 15.2512 115.766 17.13 114.94 18.5263C114.116 19.9212 113.121 20.9708 113.08 22.6586C114.405 22.0136 114.856 20.4694 115.93 19.2433C117.003 18.0199 118.161 16.4403 119.195 15.2991C118.845 15.0121 118.51 14.9081 118.409 14.4732Z" fill="white" stroke="white"/>
<path d="M134.062 12.9996C133.068 11.6796 131.823 10.964 129.939 11.0857C128.056 11.2073 125.886 10.7779 124.542 11.5445C124.723 12.0124 124.785 12.1684 124.783 12.6248C126.28 12.6555 128.083 13.0029 129.481 13.1708C130.88 13.3399 132.757 13.9336 134.062 12.9996Z" fill="white" stroke="white"/>
<path d="M137.373 15.0991C137.222 15.4375 137.035 15.6488 136.683 15.7524C139.362 18.7109 139.878 21.8818 142.509 24.6296C142.608 24.0831 143.23 24.5987 143.468 23.9832C142.516 20.8265 140.612 18.0076 137.373 15.0991Z" fill="white" stroke="white"/>
<path d="M151.13 58.6124C150.361 60.1535 150.789 62.5434 150.927 63.8417C151.067 65.1377 151.726 66.3712 152.165 67.4983C152.604 68.6239 153.275 70.9113 154.989 70.6608C155.484 68.6316 153.571 66.7813 152.741 64.8763C151.913 62.9705 152.037 60.9298 151.13 58.6124Z" fill="white" stroke="white"/>
<path d="M206.108 30.6368L205.846 30.3615C200.89 28.7442 197.206 26.7316 191.981 25.1692C189.289 28.0716 193.616 29.0497 195.579 29.9356C197.544 30.8202 200.135 31.5077 202.292 32.4174C200.517 34.2911 198.67 35.8864 197.965 38.3464C198.46 38.6385 198.598 38.9508 199.158 39.0486C201.77 36.822 203.684 34.1302 206.48 31.8547C206.321 31.4398 206.266 31.0477 206.108 30.6368Z" fill="white" stroke="white"/>
<path d="M194.469 33.0201C193.572 31.4744 191.425 32.0551 190.312 32.4894C189.2 32.9238 186.295 34.481 187.397 35.7903C188.604 34.8308 189.697 34.353 190.789 34.047C191.879 33.7423 193.745 34.0458 194.469 33.0201Z" fill="white" stroke="white"/>
<path d="M185.816 39.6425C185.317 39.7746 185.131 39.8745 184.726 40.1512C184.979 43.996 184.538 47.1407 185.543 50.1072C186.071 50.256 186.368 49.9391 186.764 49.7356C186.156 46.341 187.899 41.7478 185.816 39.6425Z" fill="white" stroke="white"/>
<path d="M159.719 75.079C159.182 76.19 161.058 77.5353 162.056 78.3417C163.053 79.1458 164.031 79.7325 165.245 79.9746C166.46 80.2143 168.508 79.4542 168.797 77.9994C167.541 76.843 165.741 78.3093 163.961 77.846C162.182 77.3819 161.396 76.2447 159.719 75.079Z" fill="white" stroke="white"/>
<path d="M187.122 51.4903C185.891 54.6157 186.181 57.7342 183.67 59.9931C183.755 60.4726 184.246 60.4819 184.318 60.9491C187.625 58.5352 188.971 55.3928 188.461 51.7933C187.912 51.397 187.574 51.636 187.122 51.4903Z" fill="white" stroke="white"/>
<path d="M184.501 69.4118C182.788 71.1518 181.166 72.9836 179.412 74.3328C177.658 75.6835 176.035 75.7259 174.22 76.5292C176.66 77.0527 178.508 76.0967 180.668 75.2448C182.829 74.3945 185.153 72.4455 185.964 70.1211C185.383 69.684 185.158 69.603 184.501 69.4118Z" fill="white" stroke="white"/>
</g>
<mask id="mask1_15_696" style="mask-type:luminance" maskUnits="userSpaceOnUse" x="27" y="-4" width="107" height="105">
<path d="M98.647 -3.79678L27.981 63.107L63.2209 100.127L133.887 33.2229L98.647 -3.79678Z" fill="white"/>
</mask>
<g mask="url(#mask1_15_696)">
<path d="M34.9988 0.185303C33.1599 0.963268 32.3557 2.84207 31.5305 4.23834C30.7067 5.63329 29.7114 6.68287 29.6702 8.37063C30.9954 7.72565 31.4462 6.18136 32.5201 4.95532C33.5939 3.73198 34.751 2.1523 35.785 1.01115C35.4357 0.724198 35.1005 0.620195 34.9988 0.185303Z" stroke="white" stroke-width="0.3"/>
<path d="M28.3019 14.3763C27.656 16.0686 26.8164 17.5518 26.7735 19.3039C26.7278 21.0561 25.8911 23.9757 27.3461 25.2258C27.7478 23.3956 28.1847 21.0925 28.4188 19.3922C28.6515 17.6934 30.0315 15.6751 28.3019 14.3763Z" stroke="white" stroke-width="0.3"/>
<path d="M28.8277 30.3657C27.4584 31.3035 27.6791 33.0128 27.3424 34.6164C27.0058 36.2201 26.8956 37.8161 26.8306 39.8456C28.22 39.9407 27.8498 38.0328 28.1779 37.0626C28.5048 36.0911 28.4283 35.0487 28.8416 34.1706C29.2535 33.2939 29.0931 32.0587 29.4827 31.0539C29.1434 30.9041 28.9316 30.7174 28.8277 30.3657Z" stroke="white" stroke-width="0.3"/>
<path d="M34.9988 0.185303C33.1599 0.963268 32.3557 2.84207 31.5305 4.23834C30.7067 5.63329 29.7114 6.68287 29.6702 8.37063C30.9954 7.72565 31.4462 6.18136 32.5201 4.95532C33.5939 3.73198 34.751 2.1523 35.785 1.01115C35.4357 0.724198 35.1005 0.620195 34.9988 0.185303Z" fill="white" stroke="white"/>
<path d="M28.3019 14.3763C27.656 16.0686 26.8164 17.5518 26.7735 19.3039C26.7278 21.0561 25.8911 23.9757 27.3461 25.2258C27.7478 23.3956 28.1847 21.0925 28.4188 19.3922C28.6515 17.6934 30.0315 15.6751 28.3019 14.3763Z" fill="white" stroke="white"/>
<path d="M28.8277 30.3657C27.4584 31.3035 27.6791 33.0128 27.3424 34.6164C27.0058 36.2201 26.8956 37.8161 26.8306 39.8456C28.22 39.9407 27.8498 38.0328 28.1779 37.0626C28.5048 36.0911 28.4283 35.0487 28.8416 34.1706C29.2535 33.2939 29.0931 32.0587 29.4827 31.0539C29.1434 30.9041 28.9316 30.7174 28.8277 30.3657Z" fill="white" stroke="white"/>
<path d="M65.5483 54.4916C65.058 56.1422 65.8929 58.4227 66.2537 59.677C66.6158 60.9298 67.4791 62.0315 68.1052 63.0661C68.7325 64.0992 69.7896 66.2371 71.4339 65.6951C71.5711 63.6112 69.3667 62.1186 68.2202 60.3848C67.0748 58.6494 66.8432 56.6187 65.5483 54.4916Z" fill="white" stroke="white"/>
<path d="M74.3244 65.2502C73.9869 66.4367 76.068 67.4397 77.1905 68.0611C78.3116 68.6825 79.3761 69.0919 80.6146 69.1212C81.853 69.1482 83.7377 68.0473 83.7709 66.5647C82.3346 65.6419 80.8148 67.3958 78.9819 67.2455C77.1486 67.0951 76.1775 66.1099 74.3244 65.2502Z" fill="white" stroke="white"/>
<path d="M96.6313 57.9478C95.2452 59.9561 93.9635 62.04 92.4692 63.6706C90.9765 65.3027 89.3848 65.6242 87.7358 66.7274C90.2297 66.823 91.8848 65.5633 93.8646 64.3529C95.8459 63.1432 97.7986 60.8235 98.1944 58.3942C97.5466 58.0642 97.3124 58.0234 96.6313 57.9478Z" fill="white" stroke="white"/>
</g>
<mask id="mask2_15_696" style="mask-type:luminance" maskUnits="userSpaceOnUse" x="0" y="-3" width="76" height="75">
<path d="M46.9465 -2.55862L0 41.8885L28.1255 71.4344L75.072 26.9873L46.9465 -2.55862Z" fill="white"/>
</mask>
<g mask="url(#mask2_15_696)">
<path d="M7.7287 37.1882C7.19505 36.809 6.70017 36.3825 6.26135 36.7456C6.51961 37.9325 5.80023 38.7444 5.99983 40.1335C7.03342 41.505 8.10002 41.0029 8.18305 40.0005C8.26607 38.9981 7.64082 38.2789 7.7287 37.1882Z" stroke="black" stroke-opacity="0.93" stroke-width="0.3"/>
<path d="M27.0503 23.6058C25.6667 23.9527 25.3203 25.3981 24.8754 26.4343C24.4315 27.4696 23.7883 28.1858 24.038 29.5981C25.0209 29.2773 25.1326 28.0541 25.8108 27.2026C26.4894 26.3534 27.1768 25.2185 27.8365 24.4318C27.5006 24.1321 27.2071 23.9886 27.0503 23.6058Z" stroke="white" stroke-width="0.3"/>
<path d="M39.6928 24.9831C38.6523 23.707 37.5066 22.8971 35.9759 22.6845C34.4451 22.472 32.5864 21.7482 31.6091 22.1684C31.8363 22.5919 31.9135 22.7334 31.9892 23.117C33.2264 23.393 34.7694 23.9864 35.949 24.3613C37.1299 24.7375 38.7755 25.5505 39.6928 24.9831Z" stroke="white" stroke-width="0.3"/>
<path d="M10.7564 47.1448C10.462 46.7092 10.1451 46.8469 9.82617 46.717C10.6105 49.4419 10.1433 52.6136 12.6963 53.9442C12.8468 51.7524 10.4292 49.7187 10.7564 47.1448Z" stroke="white" stroke-width="0.3"/>
<path d="M23.9208 34.4196C23.6734 35.7346 23.2313 36.8415 23.4904 38.3077C23.7473 39.7734 23.549 42.0887 24.9571 43.383C24.9804 41.9112 24.9531 40.0475 24.8601 38.657C24.7663 37.2673 25.5634 35.8008 23.9208 34.4196Z" stroke="white" stroke-width="0.3"/>
<path d="M16.6406 59.3694L17.8199 60.6083C18.7199 61.3029 19.2125 61.4725 20.2568 61.7031C19.9815 60.5536 18.4922 59.6685 17.5668 58.9508C16.6423 58.2322 15.2084 56.4313 14.3345 56.5809C14.9043 57.4651 16.0985 58.4173 16.6406 59.3694Z" stroke="white" stroke-width="0.3"/>
<path d="M27.0408 47.9526C26.071 48.5123 26.5399 49.9869 26.5322 51.2791C26.5246 52.5712 26.702 53.8949 26.9896 55.5902C28.1497 55.9024 27.5241 54.2364 27.6313 53.4755C27.7372 52.713 27.499 51.8241 27.6918 51.1542C27.8836 50.4865 27.544 49.4203 27.696 48.6409C27.3914 48.4582 27.1855 48.2658 27.0408 47.9526Z" stroke="white" stroke-width="0.3"/>
<path d="M27.7369 59.8551C26.3386 59.3732 26.1429 60.9036 25.2924 61.5597C24.4407 62.2142 23.8065 62.7492 22.6936 62.7978C25.0498 63.7862 27.7504 62.2134 27.7369 59.8551Z" stroke="white" stroke-width="0.3"/>
<path d="M7.7287 37.1882C7.19505 36.809 6.70017 36.3825 6.26135 36.7456C6.51961 37.9325 5.80023 38.7444 5.99983 40.1335C7.03342 41.505 8.10002 41.0029 8.18305 40.0005C8.26607 38.9981 7.64082 38.2789 7.7287 37.1882Z" fill="white" stroke="white"/>
<path d="M27.0503 23.6058C25.6667 23.9527 25.3203 25.3981 24.8754 26.4343C24.4315 27.4696 23.7883 28.1858 24.038 29.5981C25.0209 29.2773 25.1326 28.0541 25.8108 27.2026C26.4894 26.3534 27.1768 25.2185 27.8365 24.4318C27.5006 24.1321 27.2071 23.9886 27.0503 23.6058Z" fill="white" stroke="white"/>
<path d="M39.6928 24.9831C38.6523 23.707 37.5066 22.8971 35.9759 22.6845C34.4451 22.472 32.5864 21.7482 31.6091 22.1684C31.8363 22.5919 31.9135 22.7334 31.9892 23.117C33.2264 23.393 34.7694 23.9864 35.949 24.3613C37.1299 24.7375 38.7755 25.5505 39.6928 24.9831Z" fill="white" stroke="white"/>
<path d="M10.7564 47.1448C10.462 46.7092 10.1451 46.8469 9.82617 46.717C10.6105 49.4419 10.1433 52.6136 12.6963 53.9442C12.8468 51.7524 10.4292 49.7187 10.7564 47.1448Z" fill="white" stroke="white"/>
<path d="M23.9208 34.4196C23.6734 35.7346 23.2313 36.8415 23.4904 38.3077C23.7473 39.7734 23.549 42.0887 24.9571 43.383C24.9804 41.9112 24.9531 40.0475 24.8601 38.657C24.7663 37.2673 25.5634 35.8008 23.9208 34.4196Z" fill="white" stroke="white"/>
<path d="M16.6406 59.3694L17.8199 60.6083C18.7199 61.3029 19.2125 61.4725 20.2568 61.7031C19.9815 60.5536 18.4922 59.6685 17.5668 58.9508C16.6423 58.2322 15.2084 56.4313 14.3345 56.5809C14.9043 57.4651 16.0985 58.4173 16.6406 59.3694Z" fill="white" stroke="white"/>
<path d="M27.0408 47.9526C26.071 48.5123 26.5399 49.9869 26.5322 51.2791C26.5246 52.5712 26.702 53.8949 26.9896 55.5902C28.1497 55.9024 27.5241 54.2364 27.6313 53.4755C27.7372 52.713 27.499 51.8241 27.6918 51.1542C27.8836 50.4865 27.544 49.4203 27.696 48.6409C27.3914 48.4582 27.1855 48.2658 27.0408 47.9526Z" fill="white" stroke="white"/>
<path d="M27.7369 59.8551C26.3386 59.3732 26.1429 60.9036 25.2924 61.5597C24.4407 62.2142 23.8065 62.7492 22.6936 62.7978C25.0498 63.7862 27.7504 62.2134 27.7369 59.8551Z" fill="white" stroke="white"/>
</g>
</g>
<defs>
<filter id="filter0_d_15_696" x="33.145" y="28.6649" width="146.206" height="35.7541" filterUnits="userSpaceOnUse" color-interpolation-filters="sRGB">
<feFlood flood-opacity="0" result="BackgroundImageFix"/>
<feColorMatrix in="SourceAlpha" type="matrix" values="0 0 0 0 0 0 0 0 0 0 0 0 0 0 0 0 0 0 127 0" result="hardAlpha"/>
<feOffset dy="4"/>
<feGaussianBlur stdDeviation="2"/>
<feComposite in2="hardAlpha" operator="out"/>
<feColorMatrix type="matrix" values="0 0 0 0 0 0 0 0 0 0 0 0 0 0 0 0 0 0 0.25 0"/>
<feBlend mode="normal" in2="BackgroundImageFix" result="effect1_dropShadow_15_696"/>
<feBlend mode="normal" in="SourceGraphic" in2="effect1_dropShadow_15_696" result="shape"/>
</filter>
<clipPath id="clip0_15_696">
<rect width="218" height="90" fill="white"/>
</clipPath>
</defs>
</svg>
