<svg width="57" height="55" viewBox="0 0 57 55" fill="none" xmlns="http://www.w3.org/2000/svg">
<g clip-path="url(#clip0_21_59)">
<path d="M32.6707 7.82718C33.2394 7.25648 33.8038 6.60207 34.339 6.01323C24.2306 2.73837 12.8111 7.02207 7.19731 16.1671C1.5835 25.3122 3.03353 37.6498 10.6076 45.32C18.1816 52.9888 30.7049 54.4037 39.7499 48.6996C48.7962 42.9968 53.1296 31.7336 49.7707 21.5015C47.9787 22.8522 46.7331 25.1741 44.6268 25.9666C46.3216 36.3229 38.2317 45.5321 28.0829 46.0596C17.9342 46.587 9.17701 37.6819 9.87074 27.5015C10.5645 17.3211 19.8471 9.58531 30.0293 11.176C30.4172 9.80717 31.585 8.75787 32.6707 7.82718Z" stroke="#F5FFEF" stroke-width="0.3"/>
<path d="M37.5365 21.5015C39.2687 21.9801 40.6339 22.7448 42.4023 23.176C44.1707 23.6071 45.0744 21.4974 46.3297 20.5597C47.5851 19.622 48.1287 18.2867 49.5273 17.3504C50.9259 16.4127 51.3082 14.1551 49.6413 13.3988C47.9758 12.6425 46.263 12.5713 44.8589 11.7802C43.4561 10.9876 43.2114 8.8695 42.8166 7.27183C42.4204 5.67556 40.6214 4.12394 39.309 5.55975C37.9966 6.99556 37.1458 7.41695 36.1115 8.76904C35.0771 10.1211 33.5854 10.5969 32.8541 12.0579C32.1228 13.5202 33.356 15.5309 33.9246 17.0337C34.4946 18.535 33.1753 19.6527 31.9407 20.769C30.7062 21.8853 29.8595 22.8885 28.6737 24.048C27.4864 25.2062 26.687 26.0001 25.4775 27.2587C24.2666 28.5159 25.8209 31.202 27.5239 30.8475C29.2256 30.4917 29.9082 29.0936 31.1066 28.0248C32.305 26.9559 33.2406 25.8243 34.3737 24.7457C35.5067 23.6657 36.491 22.6346 37.5365 21.5015Z" stroke="#F5FFEF" stroke-width="0.3"/>
<path d="M32.6707 7.82713C32.9348 7.60108 34.5544 6.20993 34.3389 6.01318C33.8037 6.60202 33.2393 7.25643 32.6707 7.82713Z" stroke="#F5FFEF" stroke-width="0.3"/>
<path d="M27.5268 16.3386C25.9155 16.3107 23.9831 16.7628 22.5539 17.3475C21.1247 17.9321 20.196 18.6786 19.0783 19.7195C17.9605 20.7605 17.1848 21.7037 16.448 23.0795C15.7097 24.4539 15.3789 26.18 15.2829 27.7707C15.187 29.36 15.2676 31.3246 15.8793 32.773C16.4924 34.2199 17.075 35.3809 18.1079 36.5362C19.1409 37.6916 20.0195 38.3697 21.3138 39.179C22.6067 39.9897 24.1582 40.4404 25.7181 40.619C27.278 40.7976 29.5635 40.7711 30.9996 40.1962C32.4344 39.6199 33.6925 39.1595 34.8603 38.2106C36.0281 37.2618 36.7483 36.2446 37.5713 35.0711C38.393 33.8962 39.1048 32.1534 39.2354 30.7414C39.3661 29.3293 39.8041 26.7842 39.0547 25.5591C38.304 24.3353 36.7358 26.7004 35.9725 27.4665C35.2093 28.2325 33.6439 29.4423 33.0572 30.5404C32.4705 31.6386 31.742 33.0618 30.4574 33.7916C29.1729 34.5227 27.0875 34.9288 25.6111 34.4474C24.136 33.9646 23.1017 33.1106 22.2119 31.859C21.3221 30.6074 20.9732 28.5214 21.4195 27.0925C21.8671 25.6651 22.4858 24.4163 23.8079 23.6293C25.1314 22.8423 26.1908 22.4307 27.2835 21.1177C28.3762 19.8047 28.8948 19.5758 30.203 18.1875C31.5112 16.7991 28.956 16.3637 27.5268 16.3386Z" stroke="#F5FFEF" stroke-width="0.3"/>
<path d="M32.6707 7.82718C33.2394 7.25648 33.8038 6.60207 34.339 6.01323C24.2306 2.73837 12.8111 7.02207 7.19731 16.1671C1.5835 25.3122 3.03353 37.6498 10.6076 45.32C18.1816 52.9888 30.7049 54.4037 39.7499 48.6996C48.7962 42.9968 53.1296 31.7336 49.7707 21.5015C47.9787 22.8522 46.7331 25.1741 44.6268 25.9666C46.3216 36.3229 38.2317 45.5321 28.0829 46.0596C17.9342 46.587 9.17701 37.6819 9.87074 27.5015C10.5645 17.3211 19.8471 9.58531 30.0293 11.176C30.4172 9.80717 31.585 8.75787 32.6707 7.82718Z" fill="#F5FFEF" stroke="#F5FFEF"/>
<path d="M37.5365 21.5015C39.2687 21.9801 40.6339 22.7448 42.4023 23.176C44.1707 23.6071 45.0744 21.4974 46.3298 20.5597C47.5851 19.622 48.1287 18.2867 49.5273 17.3504C50.9259 16.4127 51.3082 14.1551 49.6413 13.3988C47.9758 12.6425 46.263 12.5713 44.8589 11.7802C43.4561 10.9876 43.2114 8.8695 42.8166 7.27183C42.4204 5.67556 40.6214 4.12394 39.309 5.55975C37.9966 6.99556 37.1458 7.41695 36.1115 8.76904C35.0771 10.1211 33.5854 10.5969 32.8541 12.0579C32.1228 13.5202 33.356 15.5309 33.9246 17.0337C34.4946 18.535 33.1753 19.6527 31.9407 20.769C30.7062 21.8853 29.8595 22.8885 28.6737 24.048C27.4864 25.2062 26.687 26.0001 25.4775 27.2587C24.2666 28.5159 25.8209 31.202 27.5239 30.8475C29.2256 30.4917 29.9082 29.0936 31.1066 28.0248C32.305 26.9559 33.2406 25.8243 34.3737 24.7457C35.5067 23.6657 36.491 22.6346 37.5365 21.5015Z" fill="#9CF467" stroke="#9CF467"/>
<path d="M32.6707 7.82713C32.9348 7.60108 34.5544 6.20993 34.3389 6.01318C33.8037 6.60202 33.2393 7.25643 32.6707 7.82713Z" fill="#F5FFEF" stroke="#F5FFEF"/>
<path d="M27.5268 16.3386C25.9155 16.3107 23.9831 16.7628 22.5539 17.3475C21.1247 17.9321 20.196 18.6786 19.0783 19.7195C17.9605 20.7605 17.1848 21.7037 16.448 23.0795C15.7097 24.4539 15.3789 26.18 15.2829 27.7707C15.187 29.36 15.2676 31.3246 15.8793 32.773C16.4924 34.2199 17.075 35.3809 18.1079 36.5362C19.1409 37.6916 20.0195 38.3697 21.3138 39.179C22.6067 39.9897 24.1582 40.4404 25.7181 40.619C27.278 40.7976 29.5635 40.7711 30.9996 40.1962C32.4344 39.6199 33.6925 39.1595 34.8603 38.2106C36.0281 37.2618 36.7483 36.2446 37.5713 35.0711C38.393 33.8962 39.1048 32.1534 39.2354 30.7414C39.3661 29.3293 39.8041 26.7842 39.0547 25.5591C38.304 24.3353 36.7358 26.7004 35.9725 27.4665C35.2093 28.2325 33.6439 29.4423 33.0572 30.5404C32.4705 31.6386 31.742 33.0618 30.4574 33.7916C29.1729 34.5227 27.0875 34.9288 25.611 34.4474C24.136 33.9646 23.1017 33.1106 22.2119 31.859C21.3221 30.6074 20.9732 28.5214 21.4195 27.0925C21.8671 25.6651 22.4858 24.4163 23.8079 23.6293C25.1314 22.8423 26.1908 22.4307 27.2835 21.1177C28.3762 19.8047 28.8948 19.5758 30.203 18.1875C31.5112 16.7991 28.956 16.3637 27.5268 16.3386Z" fill="#F5FFEF" stroke="#F5FFEF"/>
</g>
<defs>
<clipPath id="clip0_21_59">
<rect width="57" height="55" fill="white"/>
</clipPath>
</defs>
</svg>
