<svg width="40" height="53" viewBox="0 0 40 53" fill="none" xmlns="http://www.w3.org/2000/svg">
<g clip-path="url(#clip0_15_882)">
<path d="M12.5 7.45312C12.5 3.3332 15.8542 0 20 0C24.1458 0 27.5 3.3332 27.5 7.45312C27.5 11.573 24.1458 14.9062 20 14.9062C15.8542 14.9062 12.5 11.573 12.5 7.45312ZM39.0208 7.59805C37.7188 6.3041 35.6042 6.3041 34.3021 7.59805L25.2812 16.5625H14.7188L5.6875 7.59805C4.38542 6.3041 2.27083 6.3041 0.96875 7.59805C-0.333333 8.89199 -0.333333 10.9934 0.96875 12.2873L10.8333 22.0799V49.6875C10.8333 51.5197 12.3229 53 14.1667 53H15.8333C17.6771 53 19.1667 51.5197 19.1667 49.6875V38.0938H20.8333V49.6875C20.8333 51.5197 22.3229 53 24.1667 53H25.8333C27.6771 53 29.1667 51.5197 29.1667 49.6875V22.0799L39.0208 12.2873C40.3229 10.9934 40.3229 8.89199 39.0208 7.59805Z" fill="#375037"/>
</g>
<defs>
<clipPath id="clip0_15_882">
<rect width="40" height="53" fill="white"/>
</clipPath>
</defs>
</svg>
