<svg width="64" height="51" viewBox="0 0 64 51" fill="none" xmlns="http://www.w3.org/2000/svg">
<g clip-path="url(#clip0_15_830)">
<path d="M51.21 19.0254L50.39 20.4498C50.09 20.9778 49.45 21.1969 48.88 20.9877C47.7 20.5494 46.62 19.9219 45.67 19.135C45.21 18.7565 45.09 18.0891 45.39 17.5711L46.21 16.1467C45.52 15.3498 44.98 14.4235 44.62 13.4174H42.97C42.37 13.4174 41.85 12.9891 41.75 12.3914C41.55 11.1961 41.54 9.94105 41.75 8.69594C41.85 8.09828 42.37 7.66 42.97 7.66H44.62C44.98 6.65394 45.52 5.72758 46.21 4.9307L45.39 3.50629C45.09 2.98832 45.2 2.32093 45.67 1.94242C46.62 1.1555 47.71 0.527966 48.88 0.0896845C49.45 -0.119495 50.09 0.0996455 50.39 0.627575L51.21 2.05199C52.26 1.86273 53.33 1.86273 54.38 2.05199L55.2 0.627575C55.5 0.0996455 56.14 -0.119495 56.71 0.0896845C57.89 0.527966 58.97 1.1555 59.92 1.94242C60.38 2.32093 60.5 2.98832 60.2 3.50629L59.38 4.9307C60.07 5.72758 60.61 6.65394 60.97 7.66H62.62C63.22 7.66 63.74 8.08832 63.84 8.68597C64.04 9.88129 64.05 11.1364 63.84 12.3815C63.74 12.9791 63.22 13.4174 62.62 13.4174H60.97C60.61 14.4235 60.07 15.3498 59.38 16.1467L60.2 17.5711C60.5 18.0891 60.39 18.7565 59.92 19.135C58.97 19.9219 57.88 20.5494 56.71 20.9877C56.14 21.1969 55.5 20.9778 55.2 20.4498L54.38 19.0254C53.34 19.2147 52.26 19.2147 51.21 19.0254ZM50.16 13.1684C54.01 16.1168 58.4 11.744 55.44 7.90902C51.59 4.95062 47.2 9.33343 50.16 13.1684ZM38.63 28.4983L42 30.1717C43.01 30.7494 43.45 31.9746 43.05 33.0703C42.16 35.4809 40.41 37.6922 38.79 39.6246C38.05 40.5112 36.77 40.7303 35.76 40.1526L32.85 38.4791C31.25 39.8438 29.39 40.9295 27.36 41.6368V44.9836C27.36 46.1391 26.53 47.1352 25.39 47.3344C22.93 47.7528 20.35 47.7727 17.8 47.3344C16.65 47.1352 15.8 46.1491 15.8 44.9836V41.6368C13.77 40.9196 11.91 39.8438 10.31 38.4791L7.39996 40.1426C6.39996 40.7203 5.10996 40.5012 4.36996 39.6147C2.74996 37.6823 1.03996 35.4709 0.149962 33.0703C-0.250038 31.9846 0.189962 30.7594 1.19996 30.1717L4.52996 28.4983C4.13996 26.4164 4.13996 24.2748 4.52996 22.183L1.19996 20.4996C0.189962 19.9219 -0.260038 18.6967 0.149962 17.611C1.03996 15.2004 2.74996 12.9891 4.36996 11.0567C5.10996 10.1702 6.38996 9.95101 7.39996 10.5287L10.31 12.2022C11.91 10.8375 13.77 9.75179 15.8 9.04457V5.68773C15.8 4.54222 16.62 3.54613 17.76 3.34691C20.22 2.92855 22.81 2.90863 25.36 3.33695C26.51 3.53617 27.36 4.5223 27.36 5.68773V9.03461C29.39 9.75179 31.25 10.8276 32.85 12.1922L35.76 10.5188C36.76 9.94105 38.05 10.1602 38.79 11.0467C40.41 12.9791 42.11 15.1905 43 17.601C43.4 18.6868 43.01 19.912 42 20.4996L38.63 22.1731C39.02 24.2649 39.02 26.4065 38.63 28.4983ZM26.87 30.6C32.79 22.9301 24 14.1744 16.3 20.0713C10.38 27.7412 19.17 36.4969 26.87 30.6ZM51.21 48.7987L50.39 50.2231C50.09 50.751 49.45 50.9702 48.88 50.761C47.7 50.3227 46.62 49.6952 45.67 48.9082C45.21 48.5297 45.09 47.8623 45.39 47.3444L46.21 45.92C45.52 45.1231 44.98 44.1967 44.62 43.1907H42.97C42.37 43.1907 41.85 42.7623 41.75 42.1647C41.55 40.9694 41.54 39.7143 41.75 38.4692C41.85 37.8715 42.37 37.4332 42.97 37.4332H44.62C44.98 36.4272 45.52 35.5008 46.21 34.7039L45.39 33.2795C45.09 32.7616 45.2 32.0942 45.67 31.7157C46.62 30.9287 47.71 30.3012 48.88 29.8629C49.45 29.6537 50.09 29.8729 50.39 30.4008L51.21 31.8252C52.26 31.636 53.33 31.636 54.38 31.8252L55.2 30.4008C55.5 29.8729 56.14 29.6537 56.71 29.8629C57.89 30.3012 58.97 30.9287 59.92 31.7157C60.38 32.0942 60.5 32.7616 60.2 33.2795L59.38 34.7039C60.07 35.5008 60.61 36.4272 60.97 37.4332H62.62C63.22 37.4332 63.74 37.8616 63.84 38.4592C64.04 39.6545 64.05 40.9096 63.84 42.1547C63.74 42.7524 63.22 43.1907 62.62 43.1907H60.97C60.61 44.1967 60.07 45.1231 59.38 45.92L60.2 47.3444C60.5 47.8623 60.39 48.5297 59.92 48.9082C58.97 49.6952 57.88 50.3227 56.71 50.761C56.14 50.9702 55.5 50.751 55.2 50.2231L54.38 48.7987C53.34 48.9879 52.26 48.9879 51.21 48.7987ZM50.16 42.9317C54.01 45.8801 58.4 41.5073 55.44 37.6723C51.59 34.7239 47.2 39.0967 50.16 42.9317Z" fill="#375037"/>
</g>
<defs>
<clipPath id="clip0_15_830">
<rect width="64" height="51" fill="white"/>
</clipPath>
</defs>
</svg>
