<svg width="51" height="59" viewBox="0 0 51 59" fill="none" xmlns="http://www.w3.org/2000/svg">
<g clip-path="url(#clip0_28_264)">
<path d="M45.5357 3.6875H5.46429C4.01507 3.6875 2.6252 4.27026 1.60045 5.30757C0.5757 6.34488 0 7.75177 0 9.21875L0 49.7812C0 51.2482 0.5757 52.6551 1.60045 53.6924C2.6252 54.7297 4.01507 55.3125 5.46429 55.3125H21.0944V37.7623H13.9225V29.5H21.0944V23.2082C21.0944 16.0406 25.3065 12.0881 31.7612 12.0881C34.8462 12.0881 38.0792 12.6412 38.0792 12.6412V19.6705H34.5161C31.0098 19.6705 29.917 21.8715 29.917 24.1301V29.5H37.7491L36.4969 37.7623H29.917V55.3125H45.5357C46.9849 55.3125 48.3748 54.7297 49.3995 53.6924C50.4243 52.6551 51 51.2482 51 49.7812V9.21875C51 7.75177 50.4243 6.34488 49.3995 5.30757C48.3748 4.27026 46.9849 3.6875 45.5357 3.6875Z" fill="#F5FFEF"/>
</g>
<defs>
<clipPath id="clip0_28_264">
<rect width="51" height="59" fill="white"/>
</clipPath>
</defs>
</svg>
