<svg width="64" height="67" viewBox="0 0 64 67" fill="none" xmlns="http://www.w3.org/2000/svg">
<g clip-path="url(#clip0_21_226)">
<g filter="url(#filter0_d_21_226)">
<path d="M40.1152 13.5935C34.8408 13.5935 30.0928 10.156 22.7236 10.156C19.3613 10.156 16.4609 10.8543 14.0547 11.7889C14.2916 11.0731 14.3686 10.314 14.2803 9.56523C14.001 7.10527 11.9707 5.17167 9.5 5.01054C6.49219 4.81718 4 7.19121 4 10.156C4 12.0682 5.04199 13.7332 6.57812 14.6248V58.281C6.57812 59.2264 7.35156 59.9998 8.29688 59.9998H10.0156C10.9609 59.9998 11.7344 59.2264 11.7344 58.281V49.3221C15.8057 47.4637 19.3936 46.2498 25.4629 46.2498C30.7373 46.2498 35.4854 49.6873 42.8545 49.6873C49.1387 49.6873 53.8115 47.2596 56.6582 45.3904C58.1191 44.4451 59 42.823 59 41.0828V15.3016C59 11.5955 55.208 9.09257 51.8135 10.5643C47.957 12.2293 43.918 13.5935 40.1152 13.5935ZM53.8438 41.0935C51.502 42.7478 47.3125 44.531 42.8545 44.531C36.4199 44.531 31.8975 41.0935 25.4629 41.0935C20.8008 41.0935 15.1074 42.1033 11.7344 43.6717V18.7498C14.0762 17.0955 18.2656 15.3123 22.7236 15.3123C29.1582 15.3123 33.6807 18.7498 40.1152 18.7498C44.7666 18.7498 50.46 16.8807 53.8438 15.3123V41.0935Z" fill="#F5FFEF"/>
</g>
<path d="M27.02 36V35.34C27.02 34.74 27.1267 34.1933 27.34 33.7C27.5533 33.2067 27.84 32.76 28.2 32.36C28.56 31.9467 28.96 31.56 29.4 31.2C29.8533 30.8267 30.3067 30.4733 30.76 30.14C31.32 29.7267 31.8467 29.3133 32.34 28.9C32.8333 28.4733 33.2333 28.02 33.54 27.54C33.8467 27.0467 34 26.5 34 25.9C34 25.62 33.9333 25.34 33.8 25.06C33.6667 24.78 33.4467 24.5467 33.14 24.36C32.8467 24.1733 32.4467 24.08 31.94 24.08C31.4333 24.08 31.0133 24.1667 30.68 24.34C30.3467 24.5 30.0933 24.7333 29.92 25.04C29.76 25.3467 29.68 25.7267 29.68 26.18V27H27.24C27.2267 26.9333 27.2133 26.8333 27.2 26.7C27.1867 26.5667 27.18 26.4 27.18 26.2C27.18 25.2133 27.4 24.42 27.84 23.82C28.2933 23.2067 28.8867 22.76 29.62 22.48C30.3667 22.1867 31.1733 22.04 32.04 22.04C32.9467 22.04 33.6867 22.1733 34.26 22.44C34.8467 22.7067 35.3 23.0467 35.62 23.46C35.9533 23.8733 36.18 24.3133 36.3 24.78C36.4333 25.2467 36.5 25.6733 36.5 26.06C36.5 26.7 36.3867 27.2867 36.16 27.82C35.9467 28.34 35.6467 28.8333 35.26 29.3C34.8733 29.7533 34.4133 30.1933 33.88 30.62C33.36 31.0333 32.8 31.4533 32.2 31.88C31.8933 32.0933 31.5933 32.3067 31.3 32.52C31.0067 32.7333 30.7467 32.9467 30.52 33.16C30.3067 33.3733 30.14 33.5867 30.02 33.8H36.58V36H27.02Z" fill="white"/>
</g>
<defs>
<filter id="filter0_d_21_226" x="0" y="4.99951" width="63" height="63.0002" filterUnits="userSpaceOnUse" color-interpolation-filters="sRGB">
<feFlood flood-opacity="0" result="BackgroundImageFix"/>
<feColorMatrix in="SourceAlpha" type="matrix" values="0 0 0 0 0 0 0 0 0 0 0 0 0 0 0 0 0 0 127 0" result="hardAlpha"/>
<feOffset dy="4"/>
<feGaussianBlur stdDeviation="2"/>
<feComposite in2="hardAlpha" operator="out"/>
<feColorMatrix type="matrix" values="0 0 0 0 0 0 0 0 0 0 0 0 0 0 0 0 0 0 0.25 0"/>
<feBlend mode="normal" in2="BackgroundImageFix" result="effect1_dropShadow_21_226"/>
<feBlend mode="normal" in="SourceGraphic" in2="effect1_dropShadow_21_226" result="shape"/>
</filter>
<clipPath id="clip0_21_226">
<rect width="64" height="67" fill="white"/>
</clipPath>
</defs>
</svg>
