<svg width="66" height="68" viewBox="0 0 66 68" fill="none" xmlns="http://www.w3.org/2000/svg">
<g clip-path="url(#clip0_21_229)">
<g filter="url(#filter0_d_21_229)">
<path d="M42.1152 13.5935C36.8408 13.5935 32.0928 10.156 24.7236 10.156C21.3613 10.156 18.4609 10.8543 16.0547 11.7889C16.2916 11.0731 16.3686 10.314 16.2803 9.56523C16.001 7.10527 13.9707 5.17167 11.5 5.01054C8.49219 4.81718 6 7.19121 6 10.156C6 12.0682 7.04199 13.7332 8.57812 14.6248V58.281C8.57812 59.2264 9.35156 59.9998 10.2969 59.9998H12.0156C12.9609 59.9998 13.7344 59.2264 13.7344 58.281V49.3221C17.8057 47.4637 21.3936 46.2498 27.4629 46.2498C32.7373 46.2498 37.4854 49.6873 44.8545 49.6873C51.1387 49.6873 55.8115 47.2596 58.6582 45.3904C60.1191 44.4451 61 42.823 61 41.0828V15.3016C61 11.5955 57.208 9.09257 53.8135 10.5643C49.957 12.2293 45.918 13.5935 42.1152 13.5935ZM55.8438 41.0935C53.502 42.7478 49.3125 44.531 44.8545 44.531C38.4199 44.531 33.8975 41.0935 27.4629 41.0935C22.8008 41.0935 17.1074 42.1033 13.7344 43.6717V18.7498C16.0762 17.0955 20.2656 15.3123 24.7236 15.3123C31.1582 15.3123 35.6807 18.7498 42.1152 18.7498C46.7666 18.7498 52.46 16.8807 55.8438 15.3123V41.0935Z" fill="#F5FFEF"/>
</g>
<g filter="url(#filter1_d_21_229)">
<path d="M33.8 36.24C32.7467 36.24 31.8533 36.0733 31.12 35.74C30.3867 35.3933 29.8267 34.9133 29.44 34.3C29.0667 33.6733 28.88 32.9467 28.88 32.12V31.82H31.36V32.18C31.36 32.8467 31.5667 33.36 31.98 33.72C32.3933 34.0667 32.9733 34.24 33.72 34.24C34.4267 34.24 34.9933 34.0733 35.42 33.74C35.8467 33.4067 36.06 32.8733 36.06 32.14C36.06 31.5667 35.94 31.1333 35.7 30.84C35.4733 30.5333 35.1667 30.32 34.78 30.2C34.4067 30.08 34 30.02 33.56 30.02H32.42V28.02H33.62C34.02 28.02 34.38 27.9467 34.7 27.8C35.0333 27.6533 35.2933 27.4267 35.48 27.12C35.68 26.8133 35.78 26.4267 35.78 25.96C35.78 25.5067 35.6933 25.14 35.52 24.86C35.3467 24.58 35.1067 24.3733 34.8 24.24C34.4933 24.1067 34.1467 24.04 33.76 24.04C33.3467 24.04 32.98 24.1133 32.66 24.26C32.34 24.3933 32.0933 24.6067 31.92 24.9C31.7467 25.18 31.66 25.54 31.66 25.98V26.3H29.18V25.8C29.18 25.04 29.3733 24.38 29.76 23.82C30.1467 23.2467 30.68 22.8067 31.36 22.5C32.0533 22.1933 32.84 22.04 33.72 22.04C34.6267 22.04 35.42 22.1867 36.1 22.48C36.7933 22.76 37.3333 23.18 37.72 23.74C38.1067 24.3 38.3 24.9867 38.3 25.8C38.3 26.3333 38.2 26.8 38 27.2C37.8133 27.5867 37.5533 27.9133 37.22 28.18C36.8867 28.4467 36.5133 28.68 36.1 28.88V28.96C36.8067 29.1733 37.3933 29.56 37.86 30.12C38.34 30.68 38.58 31.4133 38.58 32.32C38.58 33.1333 38.3733 33.8333 37.96 34.42C37.56 35.0067 37 35.46 36.28 35.78C35.56 36.0867 34.7333 36.24 33.8 36.24Z" fill="white"/>
</g>
</g>
<defs>
<filter id="filter0_d_21_229" x="5" y="4.99951" width="63" height="63.0002" filterUnits="userSpaceOnUse" color-interpolation-filters="sRGB">
<feFlood flood-opacity="0" result="BackgroundImageFix"/>
<feColorMatrix in="SourceAlpha" type="matrix" values="0 0 0 0 0 0 0 0 0 0 0 0 0 0 0 0 0 0 127 0" result="hardAlpha"/>
<feOffset dx="3" dy="4"/>
<feGaussianBlur stdDeviation="2"/>
<feComposite in2="hardAlpha" operator="out"/>
<feColorMatrix type="matrix" values="0 0 0 0 0 0 0 0 0 0 0 0 0 0 0 0 0 0 0.25 0"/>
<feBlend mode="normal" in2="BackgroundImageFix" result="effect1_dropShadow_21_229"/>
<feBlend mode="normal" in="SourceGraphic" in2="effect1_dropShadow_21_229" result="shape"/>
</filter>
<filter id="filter1_d_21_229" x="27.8799" y="22.04" width="17.7002" height="22.2" filterUnits="userSpaceOnUse" color-interpolation-filters="sRGB">
<feFlood flood-opacity="0" result="BackgroundImageFix"/>
<feColorMatrix in="SourceAlpha" type="matrix" values="0 0 0 0 0 0 0 0 0 0 0 0 0 0 0 0 0 0 127 0" result="hardAlpha"/>
<feOffset dx="3" dy="4"/>
<feGaussianBlur stdDeviation="2"/>
<feComposite in2="hardAlpha" operator="out"/>
<feColorMatrix type="matrix" values="0 0 0 0 0 0 0 0 0 0 0 0 0 0 0 0 0 0 0.25 0"/>
<feBlend mode="normal" in2="BackgroundImageFix" result="effect1_dropShadow_21_229"/>
<feBlend mode="normal" in="SourceGraphic" in2="effect1_dropShadow_21_229" result="shape"/>
</filter>
<clipPath id="clip0_21_229">
<rect width="66" height="68" fill="white"/>
</clipPath>
</defs>
</svg>
