<svg width="49" height="63" viewBox="0 0 49 63" fill="none" xmlns="http://www.w3.org/2000/svg">
<g clip-path="url(#clip0_13_112)">
<path d="M48.9999 38.4768C41.969 55.2973 25.1252 45.1213 25.1252 45.1213C19.9572 55.1865 11.4205 61.6588 1.56948 61.6957C-0.484951 61.6957 -0.548753 58.6934 1.56948 58.6934C9.78718 58.6564 16.9458 53.4393 21.6289 45.1459C16.3843 47.1023 6.495 48.5789 1.00802 35.0314C14.9169 29.5066 21.3098 36.4096 23.7598 40.6301C25.0231 37.6277 25.9291 34.367 26.5161 30.8232C26.5161 30.8232 8.68979 33.518 7.43927 18.7523C22.6369 12.8584 26.9117 28.19 26.9117 28.19C27.1158 26.1352 27.3328 21.7178 27.3328 21.6193C27.3328 21.6193 13.7684 12.5508 22.471 1.29199C38.3705 6.58301 30.3059 21.2748 30.3059 21.2748C30.3697 21.4717 30.3697 24.2033 30.3059 25.3846C30.3059 25.3846 36.0736 14.4334 47.7111 18.3094C47.1752 34.7977 29.6041 31.4016 29.6041 31.4016C29.0427 34.773 28.1749 37.9723 27.052 40.9377C27.052 40.9377 37.6432 29.642 48.9999 38.4768Z" fill="#F9FEF9"/>
</g>
<defs>
<clipPath id="clip0_13_112">
<rect width="49" height="63" fill="white"/>
</clipPath>
</defs>
</svg>
