<svg width="56" height="50" viewBox="0 0 56 50" fill="none" xmlns="http://www.w3.org/2000/svg">
<g clip-path="url(#clip0_34_26)">
<path d="M53.1028 0.947134C52.5584 -0.27357 51.0028 -0.322398 50.3514 0.829946C47.3376 6.09362 41.9417 9.37487 35.7778 9.37487H28.0001C17.6945 9.37487 9.33339 17.7733 9.33339 28.1249C9.33339 28.8085 9.41116 29.4628 9.47922 30.1268C15.682 25.6639 24.6362 21.8749 37.3334 21.8749C38.1889 21.8749 38.8889 22.578 38.8889 23.4374C38.8889 24.2967 38.1889 24.9999 37.3334 24.9999C12.8917 24.9999 2.52783 40.0487 0.233385 45.703C-0.408282 47.2948 0.350052 49.1112 1.93477 49.7655C3.52922 50.4296 5.33755 49.6581 5.99866 48.076C6.1445 47.7245 8.03061 43.3983 12.9889 39.2284C16.1389 43.5155 22.1278 47.6073 29.9931 46.7674C45.257 45.6542 56.0001 31.9042 56.0001 15.0682C56.0001 10.1659 54.9501 5.08776 53.1028 0.947134Z" fill="#375037"/>
</g>
<defs>
<clipPath id="clip0_34_26">
<rect width="56" height="50" fill="white"/>
</clipPath>
</defs>
</svg>
