<svg width="53" height="51" viewBox="0 0 53 51" fill="none" xmlns="http://www.w3.org/2000/svg">
<g clip-path="url(#clip0_13_108)">
<path d="M26.5 -0.140625C11.8609 -0.140625 0 11.7832 0 26.5C0 41.2168 11.8609 53.1406 26.5 53.1406C41.1391 53.1406 53 41.2168 53 26.5C53 11.7832 41.1391 -0.140625 26.5 -0.140625ZM35.2942 38.2734C34.8774 38.6924 34.4393 39.1328 34.0867 39.4873C33.7661 39.8096 33.5417 40.207 33.4242 40.6367C33.2639 41.249 33.1357 41.8613 32.9113 42.4521L31.052 47.4902C29.5774 47.8125 28.0601 47.9951 26.4893 47.9951V45.0518C26.671 43.6982 25.6772 41.1523 24.0744 39.541C23.4333 38.8965 23.07 38.0264 23.07 37.1133V33.6758C23.07 32.4297 22.3968 31.2803 21.3069 30.668C19.7681 29.8086 17.5883 28.6162 16.0923 27.8643C14.8635 27.2412 13.7308 26.457 12.705 25.5225L12.6196 25.4473C11.8886 24.7866 11.2392 24.0401 10.6855 23.2236C9.68105 21.7412 8.04617 19.3135 6.98831 17.7344C9.17883 12.8467 13.1218 8.92578 18.0157 6.78809L20.5802 8.07715C21.745 8.63574 23.0806 7.80859 23.0806 6.53027V5.31641C23.9355 5.17676 24.801 5.09082 25.6879 5.05859L28.7119 8.09863C29.3851 8.77539 29.3851 9.86035 28.7119 10.5264L28.2097 11.0312L27.1091 12.1377C26.7778 12.4707 26.7778 13.0186 27.1091 13.3516L27.6113 13.8564C27.9425 14.1895 27.9425 14.7373 27.6113 15.0703L26.7565 15.9297C26.6761 16.0092 26.581 16.072 26.4765 16.1144C26.3719 16.1568 26.2601 16.178 26.1474 16.1768H25.1857C24.9613 16.1768 24.7476 16.2627 24.5873 16.4238L23.5294 17.4658C23.3993 17.5926 23.3126 17.7577 23.2818 17.9373C23.2511 18.1169 23.2779 18.3016 23.3585 18.4648L25.0254 21.8164C25.3139 22.3857 24.8972 23.0625 24.256 23.0625H23.6577C23.4546 23.0625 23.2516 22.9873 23.102 22.8477L22.1083 21.9775C21.8834 21.7807 21.6113 21.6465 21.3189 21.5881C21.0265 21.5296 20.7239 21.5491 20.4413 21.6445L17.1075 22.7617C16.8537 22.8469 16.6328 23.0097 16.4757 23.2274C16.3186 23.445 16.2331 23.7067 16.2312 23.9756C16.2312 24.459 16.5091 24.9102 16.9365 25.125L18.1226 25.7158C19.127 26.2207 20.2383 26.4893 21.3603 26.4893C22.4823 26.4893 23.7752 29.4219 24.7796 29.9268H31.9175C32.8258 29.9268 33.6913 30.292 34.3325 30.9365L35.7964 32.4082C36.0988 32.7132 36.3384 33.0751 36.5016 33.4732C36.6648 33.8713 36.7483 34.2979 36.7474 34.7285C36.7479 35.3872 36.6189 36.0396 36.3676 36.648C36.1164 37.2564 35.7479 37.8088 35.2835 38.2734H35.2942ZM44.5585 28.4658C43.9387 28.3047 43.4044 27.9287 43.0411 27.3916L41.1177 24.4912C40.8375 24.068 40.6879 23.5709 40.6879 23.0625C40.6879 22.5541 40.8375 22.057 41.1177 21.6338L43.2121 18.4756C43.4579 18.0996 43.7998 17.7988 44.1952 17.5947L45.5843 16.8965C47.0375 19.7969 47.871 23.0518 47.871 26.5C47.871 27.4346 47.7962 28.3477 47.6786 29.2393L44.5585 28.4658Z" fill="#375037"/>
</g>
<defs>
<clipPath id="clip0_13_108">
<rect width="53" height="51" rx="25.5" fill="white"/>
</clipPath>
</defs>
</svg>
