<svg width="77" height="62" viewBox="0 0 77 62" fill="none" xmlns="http://www.w3.org/2000/svg">
<g clip-path="url(#clip0_34_17)">
<path d="M58.7126 23.2498H40.4251V30.0311C40.4251 34.8385 36.539 38.7498 31.7626 38.7498C26.9862 38.7498 23.1001 34.8385 23.1001 30.0311V15.3061L15.2918 20.0287C12.9697 21.4213 11.5501 23.9522 11.5501 26.6647V32.3924L1.92506 37.9869C0.0842773 39.0526 -0.553379 41.426 0.517402 43.2787L10.1424 60.0623C11.2012 61.9151 13.5593 62.5448 15.4001 61.4791L27.8404 54.2498H44.2751C48.5221 54.2498 51.9751 50.7744 51.9751 46.4998H53.9001C56.0296 46.4998 57.7501 44.7682 57.7501 42.6248V34.8748H58.7126C60.3127 34.8748 61.6001 33.5791 61.6001 31.9686V26.1561C61.6001 24.5455 60.3127 23.2498 58.7126 23.2498ZM76.4827 18.7209L66.8577 1.93732C65.799 0.0845875 63.4408 -0.5451 61.6001 0.520525L49.1598 7.74982H36.8638C35.4201 7.74982 34.0124 8.16154 32.7852 8.92443L28.7547 11.4553C27.6238 12.1576 26.9501 13.4049 26.9501 14.7369V30.0311C26.9501 32.7072 29.1037 34.8748 31.7626 34.8748C34.4215 34.8748 36.5751 32.7072 36.5751 30.0311V19.3748H58.7126C62.4302 19.3748 65.4501 22.4143 65.4501 26.1561V29.6072L75.0751 24.0127C76.9158 22.935 77.5415 20.5737 76.4827 18.7209Z" fill="#375037"/>
</g>
<defs>
<clipPath id="clip0_34_17">
<rect width="77" height="62" fill="white"/>
</clipPath>
</defs>
</svg>
