<svg width="55" height="55" viewBox="0 0 55 55" fill="none" xmlns="http://www.w3.org/2000/svg">
<g clip-path="url(#clip0_27_254)">
<path d="M54.4951 9.09863L49.8438 4.44727C49.1992 3.80273 48.3291 3.4375 47.416 3.4375H30.9375V1.71875C30.9375 0.773438 30.1641 0 29.2188 0H25.7812C24.8359 0 24.0625 0.773438 24.0625 1.71875V3.4375H6.01562C4.58691 3.4375 3.4375 4.59766 3.4375 6.01562V14.6094C3.4375 16.0381 4.59766 17.1875 6.01562 17.1875H47.416C48.3291 17.1875 49.1992 16.8223 49.8438 16.1777L54.4951 11.5264C55.1719 10.8496 55.1719 9.76465 54.4951 9.09863ZM24.0625 53.2812C24.0625 54.2266 24.8359 55 25.7812 55H29.2188C30.1641 55 30.9375 54.2266 30.9375 53.2812V41.25H24.0625V53.2812ZM48.9844 24.0625H30.9375V20.625H24.0625V24.0625H7.58398C6.6709 24.0625 5.80078 24.4277 5.15625 25.0723L0.504883 29.7236C-0.171875 30.4004 -0.171875 31.4853 0.504883 32.1514L5.15625 36.8027C5.80078 37.4473 6.6709 37.8125 7.58398 37.8125H48.9844C50.4131 37.8125 51.5625 36.6523 51.5625 35.2344V26.6406C51.5625 25.2119 50.4023 24.0625 48.9844 24.0625Z" fill="#375037"/>
</g>
<defs>
<clipPath id="clip0_27_254">
<rect width="55" height="55" fill="white"/>
</clipPath>
</defs>
</svg>
