<svg width="65" height="65" viewBox="0 0 65 65" fill="none" xmlns="http://www.w3.org/2000/svg">
<g clip-path="url(#clip0_21_80)">
<g filter="url(#filter0_d_21_80)">
<path d="M20.1855 9.52148C20.3671 8.20625 19.0061 7.86982 18.1162 7.40771C17.225 6.94687 15.4159 7.23887 14.2187 6.98242C13.7795 8.02852 15.1747 7.66162 15.8374 7.89648C16.5001 8.13135 17.6058 8.31924 18.1644 8.61631C18.723 8.91338 19.4327 9.22949 20.1855 9.52148Z" stroke="#F5FFEF" stroke-width="0.3"/>
</g>
<g filter="url(#filter1_d_21_80)">
<path d="M46.211 10.9179C45.8061 9.74109 43.804 10.1575 42.8785 10.207C41.953 10.2553 40.4715 10.1321 40.7521 11.1719C42.4177 11.0792 44.7981 11.865 46.211 10.9179Z" stroke="#F5FFEF" stroke-width="0.3"/>
</g>
<g filter="url(#filter2_d_21_80)">
<path d="M56.1133 11.1718C54.7765 10.2616 52.3961 10.857 50.9082 10.791C50.5857 11.1629 50.8371 11.3432 50.7812 11.6796C51.7347 11.6441 52.8125 11.7736 53.6923 11.6885C54.5721 11.6035 55.9482 12.1913 56.1133 11.1718Z" stroke="#F5FFEF" stroke-width="0.3"/>
</g>
<g filter="url(#filter3_d_21_80)">
<path d="M36.6895 11.6798C35.5481 10.927 34.3916 11.7928 33.2719 11.9248C32.1534 12.0581 31.0934 12.1152 30.0879 12.6954C30.1831 12.9239 30.1996 13.1118 30.0879 13.3302C31.3346 13.334 32.5241 13.122 33.6743 13.0242C34.8245 12.9265 36.3695 12.7652 36.6895 11.6798Z" stroke="#F5FFEF" stroke-width="0.3"/>
</g>
<g filter="url(#filter4_d_21_80)">
<path d="M30.9766 18.0273C32.3807 17.2592 30.6947 15.7066 29.6182 14.9423C28.5416 14.1793 27.5717 12.7575 26.2793 12.8222C27.9703 14.4815 29.7032 16.2842 30.9766 18.0273Z" stroke="#F5FFEF" stroke-width="0.3"/>
</g>
<g filter="url(#filter5_d_21_80)">
<path d="M22.0898 16.25C21.2558 15.4642 20.2947 16.2691 19.5825 16.6068C18.8703 16.9445 18.1645 17.6249 17.2656 18.2813C17.4459 18.553 17.2123 18.7828 17.3926 19.043C18.4577 18.9313 19.1661 17.9398 19.9634 17.5945C20.7606 17.2492 21.7826 17.0537 22.0898 16.25Z" stroke="#F5FFEF" stroke-width="0.3"/>
</g>
<g filter="url(#filter6_d_21_80)">
<path d="M15.8691 22.2168C14.545 22.1673 14.0245 22.9607 12.981 23.8989C11.9374 24.8371 11.3318 25.9124 10.5371 26.6602C10.7352 26.9026 10.3886 27.1756 10.6641 27.4219C11.7279 27.1997 12.3068 25.8375 13.2983 25.105C14.2886 24.3725 14.851 23.4698 15.8691 22.8516C15.7739 22.623 15.7574 22.4352 15.8691 22.2168Z" stroke="#F5FFEF" stroke-width="0.3"/>
</g>
<g filter="url(#filter7_d_21_80)">
<path d="M33.7695 23.7402C33.456 23.6386 33.1843 23.6336 32.8809 23.7402C33.0649 24.5362 33.3163 25.4376 33.7454 25.9936C34.1732 26.5497 33.3899 28.2445 34.4043 28.4375C35.4174 28.6292 34.9984 26.3961 34.6823 25.9301C34.3662 25.4655 34.0298 24.281 33.7695 23.7402Z" stroke="#F5FFEF" stroke-width="0.3"/>
</g>
<g filter="url(#filter8_d_21_80)">
<path d="M6.85549 37.3242C7.91047 37.0906 7.51184 35.491 7.76955 34.6899C8.02727 33.8889 8.3967 32.7653 8.68615 32.0899C8.97688 31.4146 10.4356 30.244 9.14064 29.707C7.12844 31.9744 6.49748 33.8381 6.85549 37.3242Z" stroke="#F5FFEF" stroke-width="0.3"/>
</g>
<g filter="url(#filter9_d_21_80)">
<path d="M36.3087 33.8965C35.9608 33.6667 35.9431 34.1009 35.6739 33.8965C35.5521 35.0061 35.7031 36.2934 35.5457 37.4499C35.3896 38.6065 35.3591 39.6589 36.0548 40.3711C36.2643 40.328 36.4458 40.2404 36.6896 40.1172C36.7708 38.0745 36.7708 35.7424 36.3087 33.8965Z" stroke="#F5FFEF" stroke-width="0.3"/>
</g>
<g filter="url(#filter10_d_21_80)">
<path d="M8.50582 49.0039C8.45504 47.9388 7.91041 46.9803 7.79488 45.9253C7.67808 44.8703 8.01959 43.5995 6.98238 43.1641C6.52281 44.0692 6.54185 45.7171 6.88589 46.687C7.23121 47.6569 7.57398 48.6611 8.50582 49.0039Z" stroke="#F5FFEF" stroke-width="0.3"/>
</g>
<g filter="url(#filter11_d_21_80)">
<path d="M34.9121 46.7188C34.615 46.7962 34.5033 46.6527 34.1504 46.5918C33.4966 49.1689 31.5745 50.7952 31.1035 53.5742C31.426 53.5476 31.7129 53.6771 32.1191 53.7012C33.6807 51.3589 34.5097 49.4724 34.9121 46.7188Z" stroke="#F5FFEF" stroke-width="0.3"/>
</g>
<g filter="url(#filter12_d_21_80)">
<path d="M14.2188 55.7324C13.0077 55.4633 12.0517 55.3274 11.0133 54.9187C9.97606 54.5099 9.72851 52.7351 8.50595 52.6855C7.62362 53.9779 8.83476 55.1941 9.91513 55.8467C10.9955 56.4979 12.5989 56.4434 13.9649 56.4941C14.1528 56.1869 14.0982 56.0777 14.2188 55.7324Z" stroke="#F5FFEF" stroke-width="0.3"/>
</g>
<g filter="url(#filter13_d_21_80)">
<path d="M29.834 55.4785C29.6766 55.3249 29.4481 55.1116 29.1992 55.0977C28.7473 56.112 27.5641 56.9905 26.8252 57.8018C26.0864 58.613 25.0034 58.3451 25.0098 59.668C27.4943 60.4005 28.873 56.8356 29.834 55.4785Z" stroke="#F5FFEF" stroke-width="0.3"/>
</g>
<g filter="url(#filter14_d_21_80)">
<path d="M21.4551 58.1445C21.1479 58.0582 20.9739 57.9325 20.6934 57.8906C20.0853 59.0611 18.1962 58.4061 17.2656 59.0332C17.352 59.2896 17.3596 59.5486 17.2656 59.7949C18.8538 60.5808 20.2795 59.72 21.4551 58.1445Z" stroke="#F5FFEF" stroke-width="0.3"/>
</g>
<g filter="url(#filter15_d_21_80)">
<path d="M64.873 11.1719C63.2062 9.61795 61.505 8.11102 60.0361 6.9951C58.5673 5.87918 57.1606 4.0244 55.4785 5.45897C56.0422 7.10682 57.6063 7.6451 58.7476 8.48172C59.8876 9.31961 61.1432 10.3505 62.334 11.4258C59.9104 12.5709 58.0023 13.4519 55.6055 14.8535C55.6448 15.3347 55.8175 15.5949 56.1133 15.9961C57.2812 15.5936 58.2855 15.3131 59.249 14.8167C60.2113 14.3203 61.2079 13.8887 62.1753 13.4316C63.1427 12.9746 65.3453 13.1993 64.873 11.1719Z" fill="#F5FFEF" stroke="#F5FFEF"/>
</g>
<g filter="url(#filter16_d_21_80)">
<path d="M7.49034 5.83988C5.11124 5.24701 2.57344 6.24994 0.254009 6.34769C0.123247 6.69173 0.108013 7.02435 0.254009 7.36332C2.97588 7.44838 5.53907 7.40267 7.61729 6.6016C7.46749 6.31468 7.69092 6.09759 7.49034 5.83988Z" fill="#F5FFEF" stroke="#F5FFEF"/>
</g>
<g filter="url(#filter17_d_21_80)">
<path d="M20.1855 9.52148C20.3671 8.20625 19.0061 7.86982 18.1162 7.40771C17.225 6.94687 15.4159 7.23887 14.2187 6.98242C13.7795 8.02852 15.1747 7.66162 15.8374 7.89648C16.5001 8.13135 17.6058 8.31924 18.1644 8.61631C18.723 8.91338 19.4327 9.22949 20.1855 9.52148Z" fill="#F5FFEF" stroke="#F5FFEF"/>
</g>
<g filter="url(#filter18_d_21_80)">
<path d="M46.211 10.9179C45.8061 9.74109 43.804 10.1575 42.8785 10.207C41.953 10.2553 40.4715 10.1321 40.7521 11.1719C42.4177 11.0792 44.7981 11.865 46.211 10.9179Z" fill="#F5FFEF" stroke="#F5FFEF"/>
</g>
<g filter="url(#filter19_d_21_80)">
<path d="M56.1133 11.1718C54.7765 10.2616 52.3961 10.857 50.9082 10.791C50.5857 11.1629 50.8371 11.3432 50.7812 11.6796C51.7347 11.6441 52.8125 11.7736 53.6923 11.6885C54.5721 11.6035 55.9482 12.1913 56.1133 11.1718Z" fill="#F5FFEF" stroke="#F5FFEF"/>
</g>
<g filter="url(#filter20_d_21_80)">
<path d="M36.6895 11.6798C35.5481 10.927 34.3916 11.7928 33.2719 11.9248C32.1534 12.0581 31.0934 12.1152 30.0879 12.6954C30.1831 12.9239 30.1996 13.1118 30.0879 13.3302C31.3346 13.334 32.5241 13.122 33.6743 13.0242C34.8245 12.9265 36.3695 12.7652 36.6895 11.6798Z" fill="#F5FFEF" stroke="#F5FFEF"/>
</g>
<g filter="url(#filter21_d_21_80)">
<path d="M30.9766 18.0273C32.3807 17.2592 30.6947 15.7066 29.6182 14.9423C28.5416 14.1793 27.5717 12.7575 26.2793 12.8222C27.9703 14.4815 29.7032 16.2842 30.9766 18.0273Z" fill="#F5FFEF" stroke="#F5FFEF"/>
</g>
<g filter="url(#filter22_d_21_80)">
<path d="M22.0898 16.25C21.2558 15.4642 20.2947 16.2691 19.5825 16.6068C18.8703 16.9445 18.1645 17.6249 17.2656 18.2813C17.4459 18.553 17.2123 18.7828 17.3926 19.043C18.4577 18.9313 19.1661 17.9398 19.9634 17.5945C20.7606 17.2492 21.7826 17.0537 22.0898 16.25Z" fill="#F5FFEF" stroke="#F5FFEF"/>
</g>
<g filter="url(#filter23_d_21_80)">
<path d="M15.8691 22.2168C14.545 22.1673 14.0245 22.9607 12.981 23.8989C11.9374 24.8371 11.3318 25.9124 10.5371 26.6602C10.7352 26.9026 10.3886 27.1756 10.6641 27.4219C11.7279 27.1997 12.3068 25.8375 13.2983 25.105C14.2886 24.3725 14.851 23.4698 15.8691 22.8516C15.7739 22.623 15.7574 22.4352 15.8691 22.2168Z" fill="#F5FFEF" stroke="#F5FFEF"/>
</g>
<g filter="url(#filter24_d_21_80)">
<path d="M33.7695 23.7402C33.456 23.6386 33.1843 23.6336 32.8809 23.7402C33.0649 24.5362 33.3163 25.4376 33.7454 25.9936C34.1732 26.5497 33.3899 28.2445 34.4043 28.4375C35.4174 28.6292 34.9984 26.3961 34.6823 25.9301C34.3662 25.4655 34.0298 24.281 33.7695 23.7402Z" fill="#F5FFEF" stroke="#F5FFEF"/>
</g>
<g filter="url(#filter25_d_21_80)">
<path d="M6.85549 37.3242C7.91047 37.0906 7.51184 35.491 7.76955 34.6899C8.02727 33.8889 8.3967 32.7653 8.68615 32.0899C8.97688 31.4146 10.4356 30.244 9.14065 29.707C7.12844 31.9744 6.49748 33.8381 6.85549 37.3242Z" fill="#F5FFEF" stroke="#F5FFEF"/>
</g>
<g filter="url(#filter26_d_21_80)">
<path d="M36.3087 33.8965C35.9608 33.6667 35.9431 34.1009 35.6739 33.8965C35.5521 35.0061 35.7031 36.2934 35.5457 37.4499C35.3896 38.6065 35.3591 39.6589 36.0548 40.3711C36.2643 40.328 36.4458 40.2404 36.6896 40.1172C36.7708 38.0745 36.7708 35.7424 36.3087 33.8965Z" fill="#F5FFEF" stroke="#F5FFEF"/>
</g>
<g filter="url(#filter27_d_21_80)">
<path d="M8.50582 49.0039C8.45504 47.9388 7.91041 46.9803 7.79488 45.9253C7.67808 44.8703 8.01959 43.5995 6.98238 43.1641C6.52281 44.0692 6.54185 45.7171 6.88589 46.687C7.23121 47.6569 7.57398 48.6611 8.50582 49.0039Z" fill="#F5FFEF" stroke="#F5FFEF"/>
</g>
<g filter="url(#filter28_d_21_80)">
<path d="M34.9121 46.7188C34.615 46.7962 34.5033 46.6527 34.1504 46.5918C33.4966 49.1689 31.5745 50.7952 31.1035 53.5742C31.426 53.5476 31.7129 53.6771 32.1191 53.7012C33.6807 51.3589 34.5097 49.4724 34.9121 46.7188Z" fill="#F5FFEF" stroke="#F5FFEF"/>
</g>
<g filter="url(#filter29_d_21_80)">
<path d="M14.2188 55.7324C13.0077 55.4633 12.0517 55.3274 11.0133 54.9187C9.97606 54.5099 9.72851 52.7351 8.50595 52.6855C7.62362 53.9779 8.83476 55.1941 9.91513 55.8467C10.9955 56.4979 12.5989 56.4434 13.9649 56.4941C14.1528 56.1869 14.0982 56.0777 14.2188 55.7324Z" fill="#F5FFEF" stroke="#F5FFEF"/>
</g>
<g filter="url(#filter30_d_21_80)">
<path d="M29.834 55.4785C29.6766 55.3249 29.4481 55.1116 29.1992 55.0977C28.7473 56.112 27.5641 56.9905 26.8252 57.8018C26.0864 58.613 25.0034 58.3451 25.0098 59.668C27.4943 60.4005 28.873 56.8356 29.834 55.4785Z" fill="#F5FFEF" stroke="#F5FFEF"/>
</g>
<g filter="url(#filter31_d_21_80)">
<path d="M21.4551 58.1445C21.1479 58.0582 20.9739 57.9325 20.6934 57.8906C20.0853 59.0611 18.1962 58.4061 17.2656 59.0332C17.352 59.2896 17.3596 59.5486 17.2656 59.7949C18.8538 60.5808 20.2795 59.72 21.4551 58.1445Z" fill="#F5FFEF" stroke="#F5FFEF"/>
</g>
</g>
<defs>
<filter id="filter0_d_21_80" x="9.98462" y="6.80981" width="14.3674" height="12.9202" filterUnits="userSpaceOnUse" color-interpolation-filters="sRGB">
<feFlood flood-opacity="0" result="BackgroundImageFix"/>
<feColorMatrix in="SourceAlpha" type="matrix" values="0 0 0 0 0 0 0 0 0 0 0 0 0 0 0 0 0 0 127 0" result="hardAlpha"/>
<feOffset dy="6"/>
<feGaussianBlur stdDeviation="2"/>
<feComposite in2="hardAlpha" operator="out"/>
<feColorMatrix type="matrix" values="0 0 0 0 0 0 0 0 0 0 0 0 0 0 0 0 0 0 0.25 0"/>
<feBlend mode="normal" in2="BackgroundImageFix" result="effect1_dropShadow_21_80"/>
<feBlend mode="normal" in="SourceGraphic" in2="effect1_dropShadow_21_80" result="shape"/>
</filter>
<filter id="filter1_d_21_80" x="36.5674" y="9.94556" width="13.823" height="11.5947" filterUnits="userSpaceOnUse" color-interpolation-filters="sRGB">
<feFlood flood-opacity="0" result="BackgroundImageFix"/>
<feColorMatrix in="SourceAlpha" type="matrix" values="0 0 0 0 0 0 0 0 0 0 0 0 0 0 0 0 0 0 127 0" result="hardAlpha"/>
<feOffset dy="6"/>
<feGaussianBlur stdDeviation="2"/>
<feComposite in2="hardAlpha" operator="out"/>
<feColorMatrix type="matrix" values="0 0 0 0 0 0 0 0 0 0 0 0 0 0 0 0 0 0 0.25 0"/>
<feBlend mode="normal" in2="BackgroundImageFix" result="effect1_dropShadow_21_80"/>
<feBlend mode="normal" in="SourceGraphic" in2="effect1_dropShadow_21_80" result="shape"/>
</filter>
<filter id="filter2_d_21_80" x="46.5903" y="10.51" width="13.6863" height="11.4211" filterUnits="userSpaceOnUse" color-interpolation-filters="sRGB">
<feFlood flood-opacity="0" result="BackgroundImageFix"/>
<feColorMatrix in="SourceAlpha" type="matrix" values="0 0 0 0 0 0 0 0 0 0 0 0 0 0 0 0 0 0 127 0" result="hardAlpha"/>
<feOffset dy="6"/>
<feGaussianBlur stdDeviation="2"/>
<feComposite in2="hardAlpha" operator="out"/>
<feColorMatrix type="matrix" values="0 0 0 0 0 0 0 0 0 0 0 0 0 0 0 0 0 0 0.25 0"/>
<feBlend mode="normal" in2="BackgroundImageFix" result="effect1_dropShadow_21_80"/>
<feBlend mode="normal" in="SourceGraphic" in2="effect1_dropShadow_21_80" result="shape"/>
</filter>
<filter id="filter3_d_21_80" x="25.843" y="11.2258" width="15.0217" height="12.2544" filterUnits="userSpaceOnUse" color-interpolation-filters="sRGB">
<feFlood flood-opacity="0" result="BackgroundImageFix"/>
<feColorMatrix in="SourceAlpha" type="matrix" values="0 0 0 0 0 0 0 0 0 0 0 0 0 0 0 0 0 0 127 0" result="hardAlpha"/>
<feOffset dy="6"/>
<feGaussianBlur stdDeviation="2"/>
<feComposite in2="hardAlpha" operator="out"/>
<feColorMatrix type="matrix" values="0 0 0 0 0 0 0 0 0 0 0 0 0 0 0 0 0 0 0.25 0"/>
<feBlend mode="normal" in2="BackgroundImageFix" result="effect1_dropShadow_21_80"/>
<feBlend mode="normal" in="SourceGraphic" in2="effect1_dropShadow_21_80" result="shape"/>
</filter>
<filter id="filter4_d_21_80" x="21.9299" y="12.6702" width="13.731" height="15.552" filterUnits="userSpaceOnUse" color-interpolation-filters="sRGB">
<feFlood flood-opacity="0" result="BackgroundImageFix"/>
<feColorMatrix in="SourceAlpha" type="matrix" values="0 0 0 0 0 0 0 0 0 0 0 0 0 0 0 0 0 0 127 0" result="hardAlpha"/>
<feOffset dy="6"/>
<feGaussianBlur stdDeviation="2"/>
<feComposite in2="hardAlpha" operator="out"/>
<feColorMatrix type="matrix" values="0 0 0 0 0 0 0 0 0 0 0 0 0 0 0 0 0 0 0.25 0"/>
<feBlend mode="normal" in2="BackgroundImageFix" result="effect1_dropShadow_21_80"/>
<feBlend mode="normal" in="SourceGraphic" in2="effect1_dropShadow_21_80" result="shape"/>
</filter>
<filter id="filter5_d_21_80" x="13.0613" y="15.7666" width="13.2046" height="13.4348" filterUnits="userSpaceOnUse" color-interpolation-filters="sRGB">
<feFlood flood-opacity="0" result="BackgroundImageFix"/>
<feColorMatrix in="SourceAlpha" type="matrix" values="0 0 0 0 0 0 0 0 0 0 0 0 0 0 0 0 0 0 127 0" result="hardAlpha"/>
<feOffset dy="6"/>
<feGaussianBlur stdDeviation="2"/>
<feComposite in2="hardAlpha" operator="out"/>
<feColorMatrix type="matrix" values="0 0 0 0 0 0 0 0 0 0 0 0 0 0 0 0 0 0 0.25 0"/>
<feBlend mode="normal" in2="BackgroundImageFix" result="effect1_dropShadow_21_80"/>
<feBlend mode="normal" in="SourceGraphic" in2="effect1_dropShadow_21_80" result="shape"/>
</filter>
<filter id="filter6_d_21_80" x="6.33252" y="22.0647" width="13.7773" height="15.5195" filterUnits="userSpaceOnUse" color-interpolation-filters="sRGB">
<feFlood flood-opacity="0" result="BackgroundImageFix"/>
<feColorMatrix in="SourceAlpha" type="matrix" values="0 0 0 0 0 0 0 0 0 0 0 0 0 0 0 0 0 0 127 0" result="hardAlpha"/>
<feOffset dy="6"/>
<feGaussianBlur stdDeviation="2"/>
<feComposite in2="hardAlpha" operator="out"/>
<feColorMatrix type="matrix" values="0 0 0 0 0 0 0 0 0 0 0 0 0 0 0 0 0 0 0.25 0"/>
<feBlend mode="normal" in2="BackgroundImageFix" result="effect1_dropShadow_21_80"/>
<feBlend mode="normal" in="SourceGraphic" in2="effect1_dropShadow_21_80" result="shape"/>
</filter>
<filter id="filter7_d_21_80" x="28.7046" y="23.5122" width="10.4885" height="15.0869" filterUnits="userSpaceOnUse" color-interpolation-filters="sRGB">
<feFlood flood-opacity="0" result="BackgroundImageFix"/>
<feColorMatrix in="SourceAlpha" type="matrix" values="0 0 0 0 0 0 0 0 0 0 0 0 0 0 0 0 0 0 127 0" result="hardAlpha"/>
<feOffset dy="6"/>
<feGaussianBlur stdDeviation="2"/>
<feComposite in2="hardAlpha" operator="out"/>
<feColorMatrix type="matrix" values="0 0 0 0 0 0 0 0 0 0 0 0 0 0 0 0 0 0 0.25 0"/>
<feBlend mode="normal" in2="BackgroundImageFix" result="effect1_dropShadow_21_80"/>
<feBlend mode="normal" in="SourceGraphic" in2="effect1_dropShadow_21_80" result="shape"/>
</filter>
<filter id="filter8_d_21_80" x="2.6106" y="29.5276" width="11.208" height="17.9795" filterUnits="userSpaceOnUse" color-interpolation-filters="sRGB">
<feFlood flood-opacity="0" result="BackgroundImageFix"/>
<feColorMatrix in="SourceAlpha" type="matrix" values="0 0 0 0 0 0 0 0 0 0 0 0 0 0 0 0 0 0 127 0" result="hardAlpha"/>
<feOffset dy="6"/>
<feGaussianBlur stdDeviation="2"/>
<feComposite in2="hardAlpha" operator="out"/>
<feColorMatrix type="matrix" values="0 0 0 0 0 0 0 0 0 0 0 0 0 0 0 0 0 0 0.25 0"/>
<feBlend mode="normal" in2="BackgroundImageFix" result="effect1_dropShadow_21_80"/>
<feBlend mode="normal" in="SourceGraphic" in2="effect1_dropShadow_21_80" result="shape"/>
</filter>
<filter id="filter9_d_21_80" x="31.3035" y="33.6169" width="9.5769" height="16.9177" filterUnits="userSpaceOnUse" color-interpolation-filters="sRGB">
<feFlood flood-opacity="0" result="BackgroundImageFix"/>
<feColorMatrix in="SourceAlpha" type="matrix" values="0 0 0 0 0 0 0 0 0 0 0 0 0 0 0 0 0 0 127 0" result="hardAlpha"/>
<feOffset dy="6"/>
<feGaussianBlur stdDeviation="2"/>
<feComposite in2="hardAlpha" operator="out"/>
<feColorMatrix type="matrix" values="0 0 0 0 0 0 0 0 0 0 0 0 0 0 0 0 0 0 0.25 0"/>
<feBlend mode="normal" in2="BackgroundImageFix" result="effect1_dropShadow_21_80"/>
<feBlend mode="normal" in="SourceGraphic" in2="effect1_dropShadow_21_80" result="shape"/>
</filter>
<filter id="filter10_d_21_80" x="2.48218" y="42.9717" width="10.1843" height="16.2512" filterUnits="userSpaceOnUse" color-interpolation-filters="sRGB">
<feFlood flood-opacity="0" result="BackgroundImageFix"/>
<feColorMatrix in="SourceAlpha" type="matrix" values="0 0 0 0 0 0 0 0 0 0 0 0 0 0 0 0 0 0 127 0" result="hardAlpha"/>
<feOffset dy="6"/>
<feGaussianBlur stdDeviation="2"/>
<feComposite in2="hardAlpha" operator="out"/>
<feColorMatrix type="matrix" values="0 0 0 0 0 0 0 0 0 0 0 0 0 0 0 0 0 0 0.25 0"/>
<feBlend mode="normal" in2="BackgroundImageFix" result="effect1_dropShadow_21_80"/>
<feBlend mode="normal" in="SourceGraphic" in2="effect1_dropShadow_21_80" result="shape"/>
</filter>
<filter id="filter11_d_21_80" x="26.9233" y="46.4204" width="12.1699" height="17.4355" filterUnits="userSpaceOnUse" color-interpolation-filters="sRGB">
<feFlood flood-opacity="0" result="BackgroundImageFix"/>
<feColorMatrix in="SourceAlpha" type="matrix" values="0 0 0 0 0 0 0 0 0 0 0 0 0 0 0 0 0 0 127 0" result="hardAlpha"/>
<feOffset dy="6"/>
<feGaussianBlur stdDeviation="2"/>
<feComposite in2="hardAlpha" operator="out"/>
<feColorMatrix type="matrix" values="0 0 0 0 0 0 0 0 0 0 0 0 0 0 0 0 0 0 0.25 0"/>
<feBlend mode="normal" in2="BackgroundImageFix" result="effect1_dropShadow_21_80"/>
<feBlend mode="normal" in="SourceGraphic" in2="effect1_dropShadow_21_80" result="shape"/>
</filter>
<filter id="filter12_d_21_80" x="4.05176" y="52.5322" width="14.3643" height="14.115" filterUnits="userSpaceOnUse" color-interpolation-filters="sRGB">
<feFlood flood-opacity="0" result="BackgroundImageFix"/>
<feColorMatrix in="SourceAlpha" type="matrix" values="0 0 0 0 0 0 0 0 0 0 0 0 0 0 0 0 0 0 127 0" result="hardAlpha"/>
<feOffset dy="6"/>
<feGaussianBlur stdDeviation="2"/>
<feComposite in2="hardAlpha" operator="out"/>
<feColorMatrix type="matrix" values="0 0 0 0 0 0 0 0 0 0 0 0 0 0 0 0 0 0 0.25 0"/>
<feBlend mode="normal" in2="BackgroundImageFix" result="effect1_dropShadow_21_80"/>
<feBlend mode="normal" in="SourceGraphic" in2="effect1_dropShadow_21_80" result="shape"/>
</filter>
<filter id="filter13_d_21_80" x="20.8599" y="54.9421" width="13.1707" height="14.9744" filterUnits="userSpaceOnUse" color-interpolation-filters="sRGB">
<feFlood flood-opacity="0" result="BackgroundImageFix"/>
<feColorMatrix in="SourceAlpha" type="matrix" values="0 0 0 0 0 0 0 0 0 0 0 0 0 0 0 0 0 0 127 0" result="hardAlpha"/>
<feOffset dy="6"/>
<feGaussianBlur stdDeviation="2"/>
<feComposite in2="hardAlpha" operator="out"/>
<feColorMatrix type="matrix" values="0 0 0 0 0 0 0 0 0 0 0 0 0 0 0 0 0 0 0.25 0"/>
<feBlend mode="normal" in2="BackgroundImageFix" result="effect1_dropShadow_21_80"/>
<feBlend mode="normal" in="SourceGraphic" in2="effect1_dropShadow_21_80" result="shape"/>
</filter>
<filter id="filter14_d_21_80" x="13.0769" y="57.7266" width="12.6289" height="12.5137" filterUnits="userSpaceOnUse" color-interpolation-filters="sRGB">
<feFlood flood-opacity="0" result="BackgroundImageFix"/>
<feColorMatrix in="SourceAlpha" type="matrix" values="0 0 0 0 0 0 0 0 0 0 0 0 0 0 0 0 0 0 127 0" result="hardAlpha"/>
<feOffset dy="6"/>
<feGaussianBlur stdDeviation="2"/>
<feComposite in2="hardAlpha" operator="out"/>
<feColorMatrix type="matrix" values="0 0 0 0 0 0 0 0 0 0 0 0 0 0 0 0 0 0 0.25 0"/>
<feBlend mode="normal" in2="BackgroundImageFix" result="effect1_dropShadow_21_80"/>
<feBlend mode="normal" in="SourceGraphic" in2="effect1_dropShadow_21_80" result="shape"/>
</filter>
<filter id="filter15_d_21_80" x="50.8955" y="4.43628" width="18.543" height="22.1521" filterUnits="userSpaceOnUse" color-interpolation-filters="sRGB">
<feFlood flood-opacity="0" result="BackgroundImageFix"/>
<feColorMatrix in="SourceAlpha" type="matrix" values="0 0 0 0 0 0 0 0 0 0 0 0 0 0 0 0 0 0 127 0" result="hardAlpha"/>
<feOffset dy="6"/>
<feGaussianBlur stdDeviation="2"/>
<feComposite in2="hardAlpha" operator="out"/>
<feColorMatrix type="matrix" values="0 0 0 0 0 0 0 0 0 0 0 0 0 0 0 0 0 0 0.25 0"/>
<feBlend mode="normal" in2="BackgroundImageFix" result="effect1_dropShadow_21_80"/>
<feBlend mode="normal" in="SourceGraphic" in2="effect1_dropShadow_21_80" result="shape"/>
</filter>
<filter id="filter16_d_21_80" x="-4.34985" y="5.15356" width="16.6697" height="12.7405" filterUnits="userSpaceOnUse" color-interpolation-filters="sRGB">
<feFlood flood-opacity="0" result="BackgroundImageFix"/>
<feColorMatrix in="SourceAlpha" type="matrix" values="0 0 0 0 0 0 0 0 0 0 0 0 0 0 0 0 0 0 127 0" result="hardAlpha"/>
<feOffset dy="6"/>
<feGaussianBlur stdDeviation="2"/>
<feComposite in2="hardAlpha" operator="out"/>
<feColorMatrix type="matrix" values="0 0 0 0 0 0 0 0 0 0 0 0 0 0 0 0 0 0 0.25 0"/>
<feBlend mode="normal" in2="BackgroundImageFix" result="effect1_dropShadow_21_80"/>
<feBlend mode="normal" in="SourceGraphic" in2="effect1_dropShadow_21_80" result="shape"/>
</filter>
<filter id="filter17_d_21_80" x="9.63477" y="6.40674" width="15.0671" height="13.8096" filterUnits="userSpaceOnUse" color-interpolation-filters="sRGB">
<feFlood flood-opacity="0" result="BackgroundImageFix"/>
<feColorMatrix in="SourceAlpha" type="matrix" values="0 0 0 0 0 0 0 0 0 0 0 0 0 0 0 0 0 0 127 0" result="hardAlpha"/>
<feOffset dy="6"/>
<feGaussianBlur stdDeviation="2"/>
<feComposite in2="hardAlpha" operator="out"/>
<feColorMatrix type="matrix" values="0 0 0 0 0 0 0 0 0 0 0 0 0 0 0 0 0 0 0.25 0"/>
<feBlend mode="normal" in2="BackgroundImageFix" result="effect1_dropShadow_21_80"/>
<feBlend mode="normal" in="SourceGraphic" in2="effect1_dropShadow_21_80" result="shape"/>
</filter>
<filter id="filter18_d_21_80" x="36.2175" y="9.59546" width="14.5916" height="12.2949" filterUnits="userSpaceOnUse" color-interpolation-filters="sRGB">
<feFlood flood-opacity="0" result="BackgroundImageFix"/>
<feColorMatrix in="SourceAlpha" type="matrix" values="0 0 0 0 0 0 0 0 0 0 0 0 0 0 0 0 0 0 127 0" result="hardAlpha"/>
<feOffset dy="6"/>
<feGaussianBlur stdDeviation="2"/>
<feComposite in2="hardAlpha" operator="out"/>
<feColorMatrix type="matrix" values="0 0 0 0 0 0 0 0 0 0 0 0 0 0 0 0 0 0 0.25 0"/>
<feBlend mode="normal" in2="BackgroundImageFix" result="effect1_dropShadow_21_80"/>
<feBlend mode="normal" in="SourceGraphic" in2="effect1_dropShadow_21_80" result="shape"/>
</filter>
<filter id="filter19_d_21_80" x="46.1877" y="10.1602" width="14.47" height="12.1208" filterUnits="userSpaceOnUse" color-interpolation-filters="sRGB">
<feFlood flood-opacity="0" result="BackgroundImageFix"/>
<feColorMatrix in="SourceAlpha" type="matrix" values="0 0 0 0 0 0 0 0 0 0 0 0 0 0 0 0 0 0 127 0" result="hardAlpha"/>
<feOffset dy="6"/>
<feGaussianBlur stdDeviation="2"/>
<feComposite in2="hardAlpha" operator="out"/>
<feColorMatrix type="matrix" values="0 0 0 0 0 0 0 0 0 0 0 0 0 0 0 0 0 0 0.25 0"/>
<feBlend mode="normal" in2="BackgroundImageFix" result="effect1_dropShadow_21_80"/>
<feBlend mode="normal" in="SourceGraphic" in2="effect1_dropShadow_21_80" result="shape"/>
</filter>
<filter id="filter20_d_21_80" x="25.2717" y="10.8757" width="16.002" height="12.9546" filterUnits="userSpaceOnUse" color-interpolation-filters="sRGB">
<feFlood flood-opacity="0" result="BackgroundImageFix"/>
<feColorMatrix in="SourceAlpha" type="matrix" values="0 0 0 0 0 0 0 0 0 0 0 0 0 0 0 0 0 0 127 0" result="hardAlpha"/>
<feOffset dy="6"/>
<feGaussianBlur stdDeviation="2"/>
<feComposite in2="hardAlpha" operator="out"/>
<feColorMatrix type="matrix" values="0 0 0 0 0 0 0 0 0 0 0 0 0 0 0 0 0 0 0.25 0"/>
<feBlend mode="normal" in2="BackgroundImageFix" result="effect1_dropShadow_21_80"/>
<feBlend mode="normal" in="SourceGraphic" in2="effect1_dropShadow_21_80" result="shape"/>
</filter>
<filter id="filter21_d_21_80" x="21.1147" y="12.3201" width="14.8962" height="16.3564" filterUnits="userSpaceOnUse" color-interpolation-filters="sRGB">
<feFlood flood-opacity="0" result="BackgroundImageFix"/>
<feColorMatrix in="SourceAlpha" type="matrix" values="0 0 0 0 0 0 0 0 0 0 0 0 0 0 0 0 0 0 127 0" result="hardAlpha"/>
<feOffset dy="6"/>
<feGaussianBlur stdDeviation="2"/>
<feComposite in2="hardAlpha" operator="out"/>
<feColorMatrix type="matrix" values="0 0 0 0 0 0 0 0 0 0 0 0 0 0 0 0 0 0 0.25 0"/>
<feBlend mode="normal" in2="BackgroundImageFix" result="effect1_dropShadow_21_80"/>
<feBlend mode="normal" in="SourceGraphic" in2="effect1_dropShadow_21_80" result="shape"/>
</filter>
<filter id="filter22_d_21_80" x="12.5847" y="15.4165" width="14.0918" height="14.1548" filterUnits="userSpaceOnUse" color-interpolation-filters="sRGB">
<feFlood flood-opacity="0" result="BackgroundImageFix"/>
<feColorMatrix in="SourceAlpha" type="matrix" values="0 0 0 0 0 0 0 0 0 0 0 0 0 0 0 0 0 0 127 0" result="hardAlpha"/>
<feOffset dy="6"/>
<feGaussianBlur stdDeviation="2"/>
<feComposite in2="hardAlpha" operator="out"/>
<feColorMatrix type="matrix" values="0 0 0 0 0 0 0 0 0 0 0 0 0 0 0 0 0 0 0.25 0"/>
<feBlend mode="normal" in2="BackgroundImageFix" result="effect1_dropShadow_21_80"/>
<feBlend mode="normal" in="SourceGraphic" in2="effect1_dropShadow_21_80" result="shape"/>
</filter>
<filter id="filter23_d_21_80" x="5.85498" y="21.7146" width="14.8164" height="16.2483" filterUnits="userSpaceOnUse" color-interpolation-filters="sRGB">
<feFlood flood-opacity="0" result="BackgroundImageFix"/>
<feColorMatrix in="SourceAlpha" type="matrix" values="0 0 0 0 0 0 0 0 0 0 0 0 0 0 0 0 0 0 127 0" result="hardAlpha"/>
<feOffset dy="6"/>
<feGaussianBlur stdDeviation="2"/>
<feComposite in2="hardAlpha" operator="out"/>
<feColorMatrix type="matrix" values="0 0 0 0 0 0 0 0 0 0 0 0 0 0 0 0 0 0 0.25 0"/>
<feBlend mode="normal" in2="BackgroundImageFix" result="effect1_dropShadow_21_80"/>
<feBlend mode="normal" in="SourceGraphic" in2="effect1_dropShadow_21_80" result="shape"/>
</filter>
<filter id="filter24_d_21_80" x="28.293" y="23.1621" width="11.2502" height="15.7869" filterUnits="userSpaceOnUse" color-interpolation-filters="sRGB">
<feFlood flood-opacity="0" result="BackgroundImageFix"/>
<feColorMatrix in="SourceAlpha" type="matrix" values="0 0 0 0 0 0 0 0 0 0 0 0 0 0 0 0 0 0 127 0" result="hardAlpha"/>
<feOffset dy="6"/>
<feGaussianBlur stdDeviation="2"/>
<feComposite in2="hardAlpha" operator="out"/>
<feColorMatrix type="matrix" values="0 0 0 0 0 0 0 0 0 0 0 0 0 0 0 0 0 0 0.25 0"/>
<feBlend mode="normal" in2="BackgroundImageFix" result="effect1_dropShadow_21_80"/>
<feBlend mode="normal" in="SourceGraphic" in2="effect1_dropShadow_21_80" result="shape"/>
</filter>
<filter id="filter25_d_21_80" x="2.2605" y="29.1086" width="11.908" height="18.8252" filterUnits="userSpaceOnUse" color-interpolation-filters="sRGB">
<feFlood flood-opacity="0" result="BackgroundImageFix"/>
<feColorMatrix in="SourceAlpha" type="matrix" values="0 0 0 0 0 0 0 0 0 0 0 0 0 0 0 0 0 0 127 0" result="hardAlpha"/>
<feOffset dy="6"/>
<feGaussianBlur stdDeviation="2"/>
<feComposite in2="hardAlpha" operator="out"/>
<feColorMatrix type="matrix" values="0 0 0 0 0 0 0 0 0 0 0 0 0 0 0 0 0 0 0.25 0"/>
<feBlend mode="normal" in2="BackgroundImageFix" result="effect1_dropShadow_21_80"/>
<feBlend mode="normal" in="SourceGraphic" in2="effect1_dropShadow_21_80" result="shape"/>
</filter>
<filter id="filter26_d_21_80" x="30.9531" y="32.9644" width="10.2773" height="17.9517" filterUnits="userSpaceOnUse" color-interpolation-filters="sRGB">
<feFlood flood-opacity="0" result="BackgroundImageFix"/>
<feColorMatrix in="SourceAlpha" type="matrix" values="0 0 0 0 0 0 0 0 0 0 0 0 0 0 0 0 0 0 127 0" result="hardAlpha"/>
<feOffset dy="6"/>
<feGaussianBlur stdDeviation="2"/>
<feComposite in2="hardAlpha" operator="out"/>
<feColorMatrix type="matrix" values="0 0 0 0 0 0 0 0 0 0 0 0 0 0 0 0 0 0 0.25 0"/>
<feBlend mode="normal" in2="BackgroundImageFix" result="effect1_dropShadow_21_80"/>
<feBlend mode="normal" in="SourceGraphic" in2="effect1_dropShadow_21_80" result="shape"/>
</filter>
<filter id="filter27_d_21_80" x="2.13208" y="42.5229" width="10.9092" height="17.2107" filterUnits="userSpaceOnUse" color-interpolation-filters="sRGB">
<feFlood flood-opacity="0" result="BackgroundImageFix"/>
<feColorMatrix in="SourceAlpha" type="matrix" values="0 0 0 0 0 0 0 0 0 0 0 0 0 0 0 0 0 0 127 0" result="hardAlpha"/>
<feOffset dy="6"/>
<feGaussianBlur stdDeviation="2"/>
<feComposite in2="hardAlpha" operator="out"/>
<feColorMatrix type="matrix" values="0 0 0 0 0 0 0 0 0 0 0 0 0 0 0 0 0 0 0.25 0"/>
<feBlend mode="normal" in2="BackgroundImageFix" result="effect1_dropShadow_21_80"/>
<feBlend mode="normal" in="SourceGraphic" in2="effect1_dropShadow_21_80" result="shape"/>
</filter>
<filter id="filter28_d_21_80" x="26.5029" y="46.0203" width="13.0129" height="18.197" filterUnits="userSpaceOnUse" color-interpolation-filters="sRGB">
<feFlood flood-opacity="0" result="BackgroundImageFix"/>
<feColorMatrix in="SourceAlpha" type="matrix" values="0 0 0 0 0 0 0 0 0 0 0 0 0 0 0 0 0 0 127 0" result="hardAlpha"/>
<feOffset dy="6"/>
<feGaussianBlur stdDeviation="2"/>
<feComposite in2="hardAlpha" operator="out"/>
<feColorMatrix type="matrix" values="0 0 0 0 0 0 0 0 0 0 0 0 0 0 0 0 0 0 0.25 0"/>
<feBlend mode="normal" in2="BackgroundImageFix" result="effect1_dropShadow_21_80"/>
<feBlend mode="normal" in="SourceGraphic" in2="effect1_dropShadow_21_80" result="shape"/>
</filter>
<filter id="filter29_d_21_80" x="3.70166" y="52.1748" width="15.1746" height="14.8298" filterUnits="userSpaceOnUse" color-interpolation-filters="sRGB">
<feFlood flood-opacity="0" result="BackgroundImageFix"/>
<feColorMatrix in="SourceAlpha" type="matrix" values="0 0 0 0 0 0 0 0 0 0 0 0 0 0 0 0 0 0 127 0" result="hardAlpha"/>
<feOffset dy="6"/>
<feGaussianBlur stdDeviation="2"/>
<feComposite in2="hardAlpha" operator="out"/>
<feColorMatrix type="matrix" values="0 0 0 0 0 0 0 0 0 0 0 0 0 0 0 0 0 0 0.25 0"/>
<feBlend mode="normal" in2="BackgroundImageFix" result="effect1_dropShadow_21_80"/>
<feBlend mode="normal" in="SourceGraphic" in2="effect1_dropShadow_21_80" result="shape"/>
</filter>
<filter id="filter30_d_21_80" x="20.5098" y="54.5791" width="13.979" height="15.6885" filterUnits="userSpaceOnUse" color-interpolation-filters="sRGB">
<feFlood flood-opacity="0" result="BackgroundImageFix"/>
<feColorMatrix in="SourceAlpha" type="matrix" values="0 0 0 0 0 0 0 0 0 0 0 0 0 0 0 0 0 0 127 0" result="hardAlpha"/>
<feOffset dy="6"/>
<feGaussianBlur stdDeviation="2"/>
<feComposite in2="hardAlpha" operator="out"/>
<feColorMatrix type="matrix" values="0 0 0 0 0 0 0 0 0 0 0 0 0 0 0 0 0 0 0.25 0"/>
<feBlend mode="normal" in2="BackgroundImageFix" result="effect1_dropShadow_21_80"/>
<feBlend mode="normal" in="SourceGraphic" in2="effect1_dropShadow_21_80" result="shape"/>
</filter>
<filter id="filter31_d_21_80" x="12.6365" y="57.3435" width="13.6548" height="13.2468" filterUnits="userSpaceOnUse" color-interpolation-filters="sRGB">
<feFlood flood-opacity="0" result="BackgroundImageFix"/>
<feColorMatrix in="SourceAlpha" type="matrix" values="0 0 0 0 0 0 0 0 0 0 0 0 0 0 0 0 0 0 127 0" result="hardAlpha"/>
<feOffset dy="6"/>
<feGaussianBlur stdDeviation="2"/>
<feComposite in2="hardAlpha" operator="out"/>
<feColorMatrix type="matrix" values="0 0 0 0 0 0 0 0 0 0 0 0 0 0 0 0 0 0 0.25 0"/>
<feBlend mode="normal" in2="BackgroundImageFix" result="effect1_dropShadow_21_80"/>
<feBlend mode="normal" in="SourceGraphic" in2="effect1_dropShadow_21_80" result="shape"/>
</filter>
<clipPath id="clip0_21_80">
<rect width="65" height="65" fill="white"/>
</clipPath>
</defs>
</svg>
